<svg width="400" height="110" viewBox="0 0 400 110" fill="none" xmlns="http://www.w3.org/2000/svg">
    <rect x="0.75" y="0.75" width="398.5" height="108.5" rx="4.25" fill="white"/>
    <path d="M131.362 36V31.4517L127.224 25.2627H128.953L131.069 28.5C131.46 29.1055 131.824 29.7109 132.161 30.3164C132.483 29.7549 132.874 29.1226 133.333 28.4194L135.413 25.2627H137.068L132.783 31.4517V36H131.362ZM136.306 32.1108C136.306 30.6704 136.707 29.6035 137.507 28.9102C138.176 28.334 138.992 28.0459 139.954 28.0459C141.023 28.0459 141.897 28.3975 142.576 29.1006C143.254 29.7988 143.594 30.7656 143.594 32.001C143.594 33.002 143.442 33.7905 143.14 34.3667C142.842 34.938 142.405 35.3823 141.829 35.6997C141.257 36.0171 140.632 36.1758 139.954 36.1758C138.865 36.1758 137.983 35.8267 137.31 35.1284C136.641 34.4302 136.306 33.4243 136.306 32.1108ZM137.661 32.1108C137.661 33.1069 137.878 33.854 138.313 34.3521C138.748 34.8452 139.294 35.0918 139.954 35.0918C140.608 35.0918 141.152 34.8428 141.587 34.3447C142.021 33.8467 142.239 33.0874 142.239 32.0669C142.239 31.105 142.019 30.3774 141.58 29.8843C141.145 29.3862 140.603 29.1372 139.954 29.1372C139.294 29.1372 138.748 29.3838 138.313 29.877C137.878 30.3701 137.661 31.1147 137.661 32.1108ZM150.244 36V34.8574C149.639 35.7363 148.816 36.1758 147.776 36.1758C147.317 36.1758 146.887 36.0879 146.487 35.9121C146.091 35.7363 145.796 35.5166 145.601 35.2529C145.41 34.9844 145.276 34.6572 145.198 34.2715C145.144 34.0127 145.117 33.6025 145.117 33.041V28.2217H146.436V32.5356C146.436 33.2241 146.462 33.688 146.516 33.9272C146.599 34.2739 146.775 34.5474 147.043 34.7476C147.312 34.9429 147.644 35.0405 148.04 35.0405C148.435 35.0405 148.806 34.9404 149.153 34.7402C149.5 34.5352 149.744 34.2593 149.885 33.9126C150.032 33.561 150.105 33.0532 150.105 32.3892V28.2217H151.423V36H150.244ZM159.106 36L156.726 28.2217H158.088L159.326 32.7114L159.788 34.3813C159.807 34.2983 159.941 33.7637 160.19 32.7773L161.428 28.2217H162.783L163.948 32.7334L164.336 34.2202L164.783 32.7188L166.116 28.2217H167.397L164.966 36H163.596L162.358 31.3418L162.058 30.0161L160.483 36H159.106ZM168.518 26.7788V25.2627H169.836V26.7788H168.518ZM168.518 36V28.2217H169.836V36H168.518ZM171.821 36V25.2627H173.14V36H171.821ZM175.161 36V25.2627H176.479V36H175.161ZM187.781 35.0405C187.292 35.4556 186.821 35.7485 186.367 35.9194C185.918 36.0903 185.435 36.1758 184.917 36.1758C184.062 36.1758 183.406 35.9683 182.947 35.5532C182.488 35.1333 182.258 34.5986 182.258 33.9492C182.258 33.5684 182.344 33.2217 182.515 32.9092C182.69 32.5918 182.917 32.3379 183.196 32.1475C183.479 31.957 183.796 31.813 184.148 31.7153C184.407 31.647 184.797 31.5811 185.32 31.5176C186.384 31.3906 187.168 31.2393 187.671 31.0635C187.676 30.8828 187.678 30.7681 187.678 30.7192C187.678 30.1821 187.554 29.8037 187.305 29.584C186.968 29.2861 186.467 29.1372 185.803 29.1372C185.183 29.1372 184.724 29.2471 184.426 29.4668C184.133 29.6816 183.916 30.0649 183.774 30.6167L182.485 30.4409C182.603 29.8892 182.795 29.4448 183.064 29.1079C183.333 28.7661 183.721 28.5049 184.229 28.3242C184.736 28.1387 185.325 28.0459 185.994 28.0459C186.658 28.0459 187.197 28.124 187.612 28.2803C188.027 28.4365 188.333 28.6343 188.528 28.8735C188.723 29.1079 188.86 29.4058 188.938 29.7671C188.982 29.9917 189.004 30.397 189.004 30.9829V32.7407C189.004 33.9663 189.031 34.7427 189.084 35.0698C189.143 35.3921 189.255 35.7021 189.421 36H188.044C187.908 35.7266 187.82 35.4067 187.781 35.0405ZM187.671 32.0962C187.192 32.2915 186.475 32.4575 185.518 32.5942C184.976 32.6724 184.592 32.7603 184.368 32.8579C184.143 32.9556 183.97 33.0996 183.848 33.29C183.726 33.4756 183.665 33.6831 183.665 33.9126C183.665 34.2642 183.796 34.5571 184.06 34.7915C184.329 35.0259 184.719 35.1431 185.232 35.1431C185.74 35.1431 186.191 35.0332 186.587 34.8135C186.982 34.5889 187.273 34.2837 187.458 33.8979C187.6 33.6001 187.671 33.1606 187.671 32.5796V32.0962ZM191.025 36V25.2627H192.344V36H191.025ZM195.83 36L193.45 28.2217H194.812L196.05 32.7114L196.511 34.3813C196.531 34.2983 196.665 33.7637 196.914 32.7773L198.152 28.2217H199.507L200.671 32.7334L201.06 34.2202L201.506 32.7188L202.839 28.2217H204.121L201.689 36H200.32L199.082 31.3418L198.782 30.0161L197.207 36H195.83ZM210.31 35.0405C209.822 35.4556 209.351 35.7485 208.896 35.9194C208.447 36.0903 207.964 36.1758 207.446 36.1758C206.592 36.1758 205.935 35.9683 205.476 35.5532C205.017 35.1333 204.788 34.5986 204.788 33.9492C204.788 33.5684 204.873 33.2217 205.044 32.9092C205.22 32.5918 205.447 32.3379 205.725 32.1475C206.008 31.957 206.326 31.813 206.677 31.7153C206.936 31.647 207.327 31.5811 207.849 31.5176C208.914 31.3906 209.697 31.2393 210.2 31.0635C210.205 30.8828 210.208 30.7681 210.208 30.7192C210.208 30.1821 210.083 29.8037 209.834 29.584C209.497 29.2861 208.997 29.1372 208.333 29.1372C207.712 29.1372 207.253 29.2471 206.956 29.4668C206.663 29.6816 206.445 30.0649 206.304 30.6167L205.015 30.4409C205.132 29.8892 205.325 29.4448 205.593 29.1079C205.862 28.7661 206.25 28.5049 206.758 28.3242C207.266 28.1387 207.854 28.0459 208.523 28.0459C209.187 28.0459 209.727 28.124 210.142 28.2803C210.557 28.4365 210.862 28.6343 211.057 28.8735C211.252 29.1079 211.389 29.4058 211.467 29.7671C211.511 29.9917 211.533 30.397 211.533 30.9829V32.7407C211.533 33.9663 211.56 34.7427 211.614 35.0698C211.672 35.3921 211.785 35.7021 211.951 36H210.574C210.437 35.7266 210.349 35.4067 210.31 35.0405ZM210.2 32.0962C209.722 32.2915 209.004 32.4575 208.047 32.5942C207.505 32.6724 207.122 32.7603 206.897 32.8579C206.672 32.9556 206.499 33.0996 206.377 33.29C206.255 33.4756 206.194 33.6831 206.194 33.9126C206.194 34.2642 206.326 34.5571 206.589 34.7915C206.858 35.0259 207.249 35.1431 207.761 35.1431C208.269 35.1431 208.721 35.0332 209.116 34.8135C209.512 34.5889 209.802 34.2837 209.988 33.8979C210.129 33.6001 210.2 33.1606 210.2 32.5796V32.0962ZM213.525 38.9956L213.379 37.7578C213.667 37.8359 213.918 37.875 214.133 37.875C214.426 37.875 214.661 37.8262 214.836 37.7285C215.012 37.6309 215.156 37.4941 215.269 37.3184C215.352 37.1865 215.486 36.8594 215.671 36.3369C215.696 36.2637 215.735 36.1562 215.789 36.0146L212.837 28.2217H214.258L215.876 32.7261C216.086 33.2974 216.274 33.8979 216.44 34.5278C216.592 33.9224 216.772 33.3315 216.982 32.7554L218.645 28.2217H219.963L217.004 36.1318C216.687 36.9863 216.44 37.5747 216.265 37.897C216.03 38.3315 215.762 38.6489 215.459 38.8491C215.156 39.0542 214.795 39.1567 214.375 39.1567C214.121 39.1567 213.838 39.103 213.525 38.9956ZM220.557 33.6782L221.86 33.4731C221.934 33.9956 222.136 34.396 222.468 34.6743C222.805 34.9526 223.274 35.0918 223.875 35.0918C224.48 35.0918 224.929 34.9697 225.222 34.7256C225.515 34.4766 225.662 34.186 225.662 33.854C225.662 33.5562 225.532 33.3218 225.273 33.1509C225.093 33.0337 224.644 32.8848 223.926 32.7041C222.959 32.46 222.288 32.25 221.912 32.0742C221.541 31.8936 221.257 31.647 221.062 31.3345C220.872 31.0171 220.776 30.668 220.776 30.2871C220.776 29.9404 220.854 29.6206 221.011 29.3276C221.172 29.0298 221.389 28.7832 221.663 28.5879C221.868 28.4365 222.146 28.3096 222.498 28.207C222.854 28.0996 223.235 28.0459 223.64 28.0459C224.25 28.0459 224.785 28.1338 225.244 28.3096C225.708 28.4854 226.05 28.7246 226.27 29.0273C226.489 29.3252 226.641 29.7256 226.724 30.2285L225.435 30.4043C225.376 30.0039 225.205 29.6914 224.922 29.4668C224.644 29.2422 224.248 29.1299 223.735 29.1299C223.13 29.1299 222.698 29.23 222.439 29.4302C222.18 29.6304 222.051 29.8647 222.051 30.1333C222.051 30.3042 222.104 30.458 222.212 30.5947C222.319 30.7363 222.488 30.8535 222.717 30.9463C222.849 30.9951 223.237 31.1074 223.882 31.2832C224.814 31.5322 225.464 31.7373 225.83 31.8984C226.201 32.0547 226.492 32.2842 226.702 32.5869C226.912 32.8896 227.017 33.2656 227.017 33.7148C227.017 34.1543 226.887 34.5693 226.628 34.96C226.375 35.3457 226.006 35.646 225.522 35.8608C225.039 36.0708 224.492 36.1758 223.882 36.1758C222.871 36.1758 222.1 35.9658 221.567 35.5459C221.04 35.126 220.703 34.5034 220.557 33.6782ZM233.074 36V29.2471H231.909V28.2217H233.074V27.394C233.074 26.8716 233.12 26.4834 233.213 26.2295C233.34 25.8877 233.562 25.6118 233.879 25.4019C234.202 25.187 234.651 25.0796 235.227 25.0796C235.598 25.0796 236.008 25.1235 236.458 25.2114L236.26 26.3613C235.986 26.3125 235.728 26.2881 235.483 26.2881C235.083 26.2881 234.8 26.3735 234.634 26.5444C234.468 26.7153 234.385 27.0352 234.385 27.5039V28.2217H235.901V29.2471H234.385V36H233.074ZM236.941 26.7788V25.2627H238.259V26.7788H236.941ZM236.941 36V28.2217H238.259V36H236.941ZM240.273 36V28.2217H241.46V29.3276C242.031 28.4731 242.856 28.0459 243.936 28.0459C244.404 28.0459 244.834 28.1313 245.225 28.3022C245.62 28.4683 245.916 28.688 246.111 28.9614C246.306 29.2349 246.443 29.5596 246.521 29.9355C246.57 30.1797 246.594 30.6069 246.594 31.2173V36H245.276V31.2686C245.276 30.7314 245.225 30.3311 245.122 30.0674C245.02 29.7988 244.836 29.5864 244.573 29.4302C244.314 29.269 244.009 29.1885 243.657 29.1885C243.096 29.1885 242.61 29.3667 242.2 29.7231C241.794 30.0796 241.592 30.7559 241.592 31.752V36H240.273ZM253.669 36V35.0186C253.176 35.79 252.451 36.1758 251.494 36.1758C250.874 36.1758 250.303 36.0049 249.78 35.6631C249.263 35.3213 248.86 34.8452 248.572 34.2349C248.289 33.6196 248.147 32.9141 248.147 32.1182C248.147 31.3418 248.276 30.6387 248.535 30.0088C248.794 29.374 249.182 28.8882 249.7 28.5513C250.217 28.2144 250.796 28.0459 251.436 28.0459C251.904 28.0459 252.322 28.146 252.688 28.3462C253.054 28.5415 253.352 28.7979 253.582 29.1152V25.2627H254.893V36H253.669ZM249.502 32.1182C249.502 33.1143 249.712 33.8589 250.132 34.3521C250.552 34.8452 251.047 35.0918 251.619 35.0918C252.195 35.0918 252.683 34.8574 253.083 34.3887C253.489 33.915 253.691 33.1948 253.691 32.228C253.691 31.1636 253.486 30.3823 253.076 29.8843C252.666 29.3862 252.161 29.1372 251.56 29.1372C250.974 29.1372 250.483 29.3765 250.088 29.855C249.697 30.3335 249.502 31.0879 249.502 32.1182ZM262.583 36L260.203 28.2217H261.565L262.803 32.7114L263.264 34.3813C263.284 34.2983 263.418 33.7637 263.667 32.7773L264.905 28.2217H266.26L267.424 32.7334L267.812 34.2202L268.259 32.7188L269.592 28.2217H270.874L268.442 36H267.073L265.835 31.3418L265.535 30.0161L263.96 36H262.583ZM271.987 36V25.2627H273.306V29.1152C273.921 28.4023 274.697 28.0459 275.635 28.0459C276.211 28.0459 276.711 28.1606 277.136 28.3901C277.561 28.6147 277.864 28.9272 278.044 29.3276C278.23 29.728 278.323 30.3091 278.323 31.0708V36H277.004V31.0708C277.004 30.4116 276.86 29.9331 276.572 29.6353C276.289 29.3325 275.886 29.1812 275.364 29.1812C274.973 29.1812 274.604 29.2837 274.258 29.4888C273.916 29.689 273.672 29.9624 273.525 30.3091C273.379 30.6558 273.306 31.1343 273.306 31.7446V36H271.987ZM285.413 35.0405C284.924 35.4556 284.453 35.7485 283.999 35.9194C283.55 36.0903 283.066 36.1758 282.549 36.1758C281.694 36.1758 281.038 35.9683 280.579 35.5532C280.12 35.1333 279.89 34.5986 279.89 33.9492C279.89 33.5684 279.976 33.2217 280.146 32.9092C280.322 32.5918 280.549 32.3379 280.828 32.1475C281.111 31.957 281.428 31.813 281.78 31.7153C282.039 31.647 282.429 31.5811 282.952 31.5176C284.016 31.3906 284.8 31.2393 285.303 31.0635C285.308 30.8828 285.31 30.7681 285.31 30.7192C285.31 30.1821 285.186 29.8037 284.937 29.584C284.6 29.2861 284.099 29.1372 283.435 29.1372C282.815 29.1372 282.356 29.2471 282.058 29.4668C281.765 29.6816 281.548 30.0649 281.406 30.6167L280.117 30.4409C280.234 29.8892 280.427 29.4448 280.696 29.1079C280.964 28.7661 281.353 28.5049 281.86 28.3242C282.368 28.1387 282.957 28.0459 283.625 28.0459C284.29 28.0459 284.829 28.124 285.244 28.2803C285.659 28.4365 285.964 28.6343 286.16 28.8735C286.355 29.1079 286.492 29.4058 286.57 29.7671C286.614 29.9917 286.636 30.397 286.636 30.9829V32.7407C286.636 33.9663 286.663 34.7427 286.716 35.0698C286.775 35.3921 286.887 35.7021 287.053 36H285.676C285.54 35.7266 285.452 35.4067 285.413 35.0405ZM285.303 32.0962C284.824 32.2915 284.106 32.4575 283.149 32.5942C282.607 32.6724 282.224 32.7603 282 32.8579C281.775 32.9556 281.602 33.0996 281.479 33.29C281.357 33.4756 281.296 33.6831 281.296 33.9126C281.296 34.2642 281.428 34.5571 281.692 34.7915C281.96 35.0259 282.351 35.1431 282.864 35.1431C283.372 35.1431 283.823 35.0332 284.219 34.8135C284.614 34.5889 284.905 34.2837 285.09 33.8979C285.232 33.6001 285.303 33.1606 285.303 32.5796V32.0962ZM291.565 34.8208L291.755 35.9854C291.384 36.0635 291.052 36.1025 290.759 36.1025C290.281 36.1025 289.91 36.0269 289.646 35.8755C289.382 35.7241 289.197 35.5264 289.089 35.2822C288.982 35.0332 288.928 34.5132 288.928 33.7222V29.2471H287.961V28.2217H288.928V26.2954L290.239 25.5044V28.2217H291.565V29.2471H290.239V33.7954C290.239 34.1714 290.261 34.4131 290.305 34.5205C290.354 34.6279 290.43 34.7134 290.532 34.7769C290.64 34.8403 290.791 34.8721 290.986 34.8721C291.133 34.8721 291.326 34.855 291.565 34.8208ZM296.978 38.9956L296.831 37.7578C297.119 37.8359 297.371 37.875 297.585 37.875C297.878 37.875 298.113 37.8262 298.289 37.7285C298.464 37.6309 298.608 37.4941 298.721 37.3184C298.804 37.1865 298.938 36.8594 299.124 36.3369C299.148 36.2637 299.187 36.1562 299.241 36.0146L296.289 28.2217H297.71L299.329 32.7261C299.539 33.2974 299.727 33.8979 299.893 34.5278C300.044 33.9224 300.225 33.3315 300.435 32.7554L302.097 28.2217H303.416L300.457 36.1318C300.139 36.9863 299.893 37.5747 299.717 37.897C299.482 38.3315 299.214 38.6489 298.911 38.8491C298.608 39.0542 298.247 39.1567 297.827 39.1567C297.573 39.1567 297.29 39.103 296.978 38.9956ZM304.045 32.1108C304.045 30.6704 304.446 29.6035 305.247 28.9102C305.916 28.334 306.731 28.0459 307.693 28.0459C308.762 28.0459 309.636 28.3975 310.315 29.1006C310.994 29.7988 311.333 30.7656 311.333 32.001C311.333 33.002 311.182 33.7905 310.879 34.3667C310.581 34.938 310.144 35.3823 309.568 35.6997C308.997 36.0171 308.372 36.1758 307.693 36.1758C306.604 36.1758 305.723 35.8267 305.049 35.1284C304.38 34.4302 304.045 33.4243 304.045 32.1108ZM305.4 32.1108C305.4 33.1069 305.618 33.854 306.052 34.3521C306.487 34.8452 307.034 35.0918 307.693 35.0918C308.347 35.0918 308.892 34.8428 309.326 34.3447C309.761 33.8467 309.978 33.0874 309.978 32.0669C309.978 31.105 309.758 30.3774 309.319 29.8843C308.884 29.3862 308.342 29.1372 307.693 29.1372C307.034 29.1372 306.487 29.3838 306.052 29.877C305.618 30.3701 305.4 31.1147 305.4 32.1108ZM317.983 36V34.8574C317.378 35.7363 316.555 36.1758 315.515 36.1758C315.056 36.1758 314.626 36.0879 314.226 35.9121C313.831 35.7363 313.535 35.5166 313.34 35.2529C313.149 34.9844 313.015 34.6572 312.937 34.2715C312.883 34.0127 312.856 33.6025 312.856 33.041V28.2217H314.175V32.5356C314.175 33.2241 314.202 33.688 314.255 33.9272C314.338 34.2739 314.514 34.5474 314.783 34.7476C315.051 34.9429 315.383 35.0405 315.779 35.0405C316.174 35.0405 316.545 34.9404 316.892 34.7402C317.239 34.5352 317.483 34.2593 317.625 33.9126C317.771 33.561 317.844 33.0532 317.844 32.3892V28.2217H319.163V36H317.983ZM325.41 36V28.2217H326.597V29.3276C327.168 28.4731 327.993 28.0459 329.072 28.0459C329.541 28.0459 329.971 28.1313 330.361 28.3022C330.757 28.4683 331.052 28.688 331.248 28.9614C331.443 29.2349 331.58 29.5596 331.658 29.9355C331.707 30.1797 331.731 30.6069 331.731 31.2173V36H330.413V31.2686C330.413 30.7314 330.361 30.3311 330.259 30.0674C330.156 29.7988 329.973 29.5864 329.709 29.4302C329.451 29.269 329.146 29.1885 328.794 29.1885C328.232 29.1885 327.747 29.3667 327.336 29.7231C326.931 30.0796 326.729 30.7559 326.729 31.752V36H325.41ZM339.084 33.4951L340.447 33.6636C340.232 34.4595 339.834 35.0771 339.253 35.5166C338.672 35.9561 337.93 36.1758 337.026 36.1758C335.889 36.1758 334.985 35.8267 334.316 35.1284C333.652 34.4253 333.32 33.4414 333.32 32.1768C333.32 30.8682 333.657 29.8525 334.331 29.1299C335.005 28.4072 335.879 28.0459 336.953 28.0459C337.993 28.0459 338.843 28.3999 339.502 29.1079C340.161 29.8159 340.491 30.812 340.491 32.0962C340.491 32.1743 340.488 32.2915 340.483 32.4478H334.683C334.731 33.3022 334.973 33.9565 335.408 34.4106C335.842 34.8647 336.384 35.0918 337.034 35.0918C337.517 35.0918 337.93 34.9648 338.271 34.7109C338.613 34.457 338.884 34.0518 339.084 33.4951ZM334.756 31.3638H339.099C339.041 30.7095 338.875 30.2188 338.601 29.8916C338.181 29.3838 337.637 29.1299 336.968 29.1299C336.362 29.1299 335.852 29.3325 335.437 29.7378C335.027 30.1431 334.8 30.6851 334.756 31.3638ZM347.434 33.4951L348.796 33.6636C348.582 34.4595 348.184 35.0771 347.603 35.5166C347.021 35.9561 346.279 36.1758 345.376 36.1758C344.238 36.1758 343.335 35.8267 342.666 35.1284C342.002 34.4253 341.67 33.4414 341.67 32.1768C341.67 30.8682 342.007 29.8525 342.681 29.1299C343.354 28.4072 344.229 28.0459 345.303 28.0459C346.343 28.0459 347.192 28.3999 347.852 29.1079C348.511 29.8159 348.84 30.812 348.84 32.0962C348.84 32.1743 348.838 32.2915 348.833 32.4478H343.032C343.081 33.3022 343.323 33.9565 343.757 34.4106C344.192 34.8647 344.734 35.0918 345.383 35.0918C345.867 35.0918 346.279 34.9648 346.621 34.7109C346.963 34.457 347.234 34.0518 347.434 33.4951ZM343.105 31.3638H347.449C347.39 30.7095 347.224 30.2188 346.951 29.8916C346.531 29.3838 345.986 29.1299 345.317 29.1299C344.712 29.1299 344.202 29.3325 343.787 29.7378C343.376 30.1431 343.149 30.6851 343.105 31.3638ZM355.505 36V35.0186C355.012 35.79 354.287 36.1758 353.33 36.1758C352.71 36.1758 352.139 36.0049 351.616 35.6631C351.099 35.3213 350.696 34.8452 350.408 34.2349C350.125 33.6196 349.983 32.9141 349.983 32.1182C349.983 31.3418 350.112 30.6387 350.371 30.0088C350.63 29.374 351.018 28.8882 351.536 28.5513C352.053 28.2144 352.632 28.0459 353.271 28.0459C353.74 28.0459 354.158 28.146 354.524 28.3462C354.89 28.5415 355.188 28.7979 355.417 29.1152V25.2627H356.729V36H355.505ZM351.338 32.1182C351.338 33.1143 351.548 33.8589 351.968 34.3521C352.388 34.8452 352.883 35.0918 353.455 35.0918C354.031 35.0918 354.519 34.8574 354.919 34.3887C355.325 33.915 355.527 33.1948 355.527 32.228C355.527 31.1636 355.322 30.3823 354.912 29.8843C354.502 29.3862 353.997 29.1372 353.396 29.1372C352.81 29.1372 352.319 29.3765 351.924 29.855C351.533 30.3335 351.338 31.0879 351.338 32.1182ZM182.983 44.7788V43.2627H184.302V44.7788H182.983ZM182.983 54V46.2217H184.302V54H182.983ZM186.316 54V46.2217H187.502V47.3276C188.074 46.4731 188.899 46.0459 189.978 46.0459C190.447 46.0459 190.876 46.1313 191.267 46.3022C191.663 46.4683 191.958 46.688 192.153 46.9614C192.349 47.2349 192.485 47.5596 192.563 47.9355C192.612 48.1797 192.637 48.6069 192.637 49.2173V54H191.318V49.2686C191.318 48.7314 191.267 48.3311 191.165 48.0674C191.062 47.7988 190.879 47.5864 190.615 47.4302C190.356 47.269 190.051 47.1885 189.7 47.1885C189.138 47.1885 188.652 47.3667 188.242 47.7231C187.837 48.0796 187.634 48.7559 187.634 49.752V54H186.316ZM198.35 50.1108C198.35 48.6704 198.75 47.6035 199.551 46.9102C200.22 46.334 201.035 46.0459 201.997 46.0459C203.066 46.0459 203.94 46.3975 204.619 47.1006C205.298 47.7988 205.637 48.7656 205.637 50.001C205.637 51.002 205.486 51.7905 205.183 52.3667C204.885 52.938 204.448 53.3823 203.872 53.6997C203.301 54.0171 202.676 54.1758 201.997 54.1758C200.908 54.1758 200.027 53.8267 199.353 53.1284C198.684 52.4302 198.35 51.4243 198.35 50.1108ZM199.705 50.1108C199.705 51.1069 199.922 51.854 200.356 52.3521C200.791 52.8452 201.338 53.0918 201.997 53.0918C202.651 53.0918 203.196 52.8428 203.63 52.3447C204.065 51.8467 204.282 51.0874 204.282 50.0669C204.282 49.105 204.062 48.3774 203.623 47.8843C203.188 47.3862 202.646 47.1372 201.997 47.1372C201.338 47.1372 200.791 47.3838 200.356 47.877C199.922 48.3701 199.705 49.1147 199.705 50.1108ZM212.288 54V52.8574C211.682 53.7363 210.859 54.1758 209.819 54.1758C209.36 54.1758 208.931 54.0879 208.53 53.9121C208.135 53.7363 207.839 53.5166 207.644 53.2529C207.454 52.9844 207.319 52.6572 207.241 52.2715C207.188 52.0127 207.161 51.6025 207.161 51.041V46.2217H208.479V50.5356C208.479 51.2241 208.506 51.688 208.56 51.9272C208.643 52.2739 208.818 52.5474 209.087 52.7476C209.355 52.9429 209.688 53.0405 210.083 53.0405C210.479 53.0405 210.85 52.9404 211.196 52.7402C211.543 52.5352 211.787 52.2593 211.929 51.9126C212.075 51.561 212.148 51.0532 212.148 50.3892V46.2217H213.467V54H212.288ZM215.525 54V46.2217H216.711V47.4009C217.014 46.8491 217.292 46.4854 217.546 46.3096C217.805 46.1338 218.088 46.0459 218.396 46.0459C218.84 46.0459 219.292 46.1875 219.751 46.4707L219.297 47.6938C218.975 47.5034 218.652 47.4082 218.33 47.4082C218.042 47.4082 217.783 47.4961 217.554 47.6719C217.324 47.8428 217.161 48.082 217.063 48.3896C216.917 48.8584 216.843 49.3711 216.843 49.9277V54H215.525ZM229.785 51.1509L231.082 51.3193C230.94 52.2129 230.576 52.9136 229.99 53.4214C229.409 53.9243 228.694 54.1758 227.844 54.1758C226.78 54.1758 225.923 53.8291 225.273 53.1357C224.629 52.4375 224.307 51.439 224.307 50.1401C224.307 49.3003 224.446 48.5654 224.724 47.9355C225.002 47.3057 225.425 46.8345 225.991 46.522C226.562 46.2046 227.183 46.0459 227.852 46.0459C228.696 46.0459 229.387 46.2607 229.924 46.6904C230.461 47.1152 230.806 47.7207 230.957 48.5068L229.675 48.7046C229.553 48.1821 229.336 47.7891 229.023 47.5254C228.716 47.2617 228.342 47.1299 227.903 47.1299C227.239 47.1299 226.699 47.3691 226.284 47.8477C225.869 48.3213 225.662 49.0732 225.662 50.1035C225.662 51.1484 225.862 51.9077 226.262 52.3813C226.663 52.855 227.185 53.0918 227.83 53.0918C228.347 53.0918 228.779 52.9331 229.126 52.6157C229.473 52.2983 229.692 51.8101 229.785 51.1509ZM231.719 50.1108C231.719 48.6704 232.119 47.6035 232.92 46.9102C233.589 46.334 234.404 46.0459 235.366 46.0459C236.436 46.0459 237.31 46.3975 237.988 47.1006C238.667 47.7988 239.006 48.7656 239.006 50.001C239.006 51.002 238.855 51.7905 238.552 52.3667C238.254 52.938 237.817 53.3823 237.241 53.6997C236.67 54.0171 236.045 54.1758 235.366 54.1758C234.277 54.1758 233.396 53.8267 232.722 53.1284C232.053 52.4302 231.719 51.4243 231.719 50.1108ZM233.074 50.1108C233.074 51.1069 233.291 51.854 233.726 52.3521C234.16 52.8452 234.707 53.0918 235.366 53.0918C236.021 53.0918 236.565 52.8428 237 52.3447C237.434 51.8467 237.651 51.0874 237.651 50.0669C237.651 49.105 237.432 48.3774 236.992 47.8843C236.558 47.3862 236.016 47.1372 235.366 47.1372C234.707 47.1372 234.16 47.3838 233.726 47.877C233.291 48.3701 233.074 49.1147 233.074 50.1108ZM240.53 54V43.2627H241.848V54H240.53ZM243.87 54V43.2627H245.188V54H243.87ZM252.563 51.4951L253.926 51.6636C253.711 52.4595 253.313 53.0771 252.732 53.5166C252.151 53.9561 251.409 54.1758 250.505 54.1758C249.368 54.1758 248.464 53.8267 247.795 53.1284C247.131 52.4253 246.799 51.4414 246.799 50.1768C246.799 48.8682 247.136 47.8525 247.81 47.1299C248.484 46.4072 249.358 46.0459 250.432 46.0459C251.472 46.0459 252.322 46.3999 252.981 47.1079C253.64 47.8159 253.97 48.812 253.97 50.0962C253.97 50.1743 253.967 50.2915 253.962 50.4478H248.162C248.21 51.3022 248.452 51.9565 248.887 52.4106C249.321 52.8647 249.863 53.0918 250.513 53.0918C250.996 53.0918 251.409 52.9648 251.75 52.7109C252.092 52.457 252.363 52.0518 252.563 51.4951ZM248.235 49.3638H252.578C252.52 48.7095 252.354 48.2188 252.08 47.8916C251.66 47.3838 251.116 47.1299 250.447 47.1299C249.841 47.1299 249.331 47.3325 248.916 47.7378C248.506 48.1431 248.279 48.6851 248.235 49.3638ZM260.664 51.1509L261.96 51.3193C261.819 52.2129 261.455 52.9136 260.869 53.4214C260.288 53.9243 259.573 54.1758 258.723 54.1758C257.659 54.1758 256.802 53.8291 256.152 53.1357C255.508 52.4375 255.186 51.439 255.186 50.1401C255.186 49.3003 255.325 48.5654 255.603 47.9355C255.881 47.3057 256.304 46.8345 256.87 46.522C257.441 46.2046 258.062 46.0459 258.73 46.0459C259.575 46.0459 260.266 46.2607 260.803 46.6904C261.34 47.1152 261.685 47.7207 261.836 48.5068L260.554 48.7046C260.432 48.1821 260.215 47.7891 259.902 47.5254C259.595 47.2617 259.221 47.1299 258.782 47.1299C258.118 47.1299 257.578 47.3691 257.163 47.8477C256.748 48.3213 256.541 49.0732 256.541 50.1035C256.541 51.1484 256.741 51.9077 257.141 52.3813C257.542 52.855 258.064 53.0918 258.708 53.0918C259.226 53.0918 259.658 52.9331 260.005 52.6157C260.352 52.2983 260.571 51.8101 260.664 51.1509ZM265.967 52.8208L266.157 53.9854C265.786 54.0635 265.454 54.1025 265.161 54.1025C264.683 54.1025 264.312 54.0269 264.048 53.8755C263.784 53.7241 263.599 53.5264 263.491 53.2822C263.384 53.0332 263.33 52.5132 263.33 51.7222V47.2471H262.363V46.2217H263.33V44.2954L264.641 43.5044V46.2217H265.967V47.2471H264.641V51.7954C264.641 52.1714 264.663 52.4131 264.707 52.5205C264.756 52.6279 264.832 52.7134 264.934 52.7769C265.042 52.8403 265.193 52.8721 265.388 52.8721C265.535 52.8721 265.728 52.855 265.967 52.8208ZM267.271 44.7788V43.2627H268.589V44.7788H267.271ZM267.271 54V46.2217H268.589V54H267.271ZM270.112 50.1108C270.112 48.6704 270.513 47.6035 271.313 46.9102C271.982 46.334 272.798 46.0459 273.76 46.0459C274.829 46.0459 275.703 46.3975 276.382 47.1006C277.061 47.7988 277.4 48.7656 277.4 50.001C277.4 51.002 277.249 51.7905 276.946 52.3667C276.648 52.938 276.211 53.3823 275.635 53.6997C275.063 54.0171 274.438 54.1758 273.76 54.1758C272.671 54.1758 271.79 53.8267 271.116 53.1284C270.447 52.4302 270.112 51.4243 270.112 50.1108ZM271.467 50.1108C271.467 51.1069 271.685 51.854 272.119 52.3521C272.554 52.8452 273.101 53.0918 273.76 53.0918C274.414 53.0918 274.958 52.8428 275.393 52.3447C275.828 51.8467 276.045 51.0874 276.045 50.0669C276.045 49.105 275.825 48.3774 275.386 47.8843C274.951 47.3862 274.409 47.1372 273.76 47.1372C273.101 47.1372 272.554 47.3838 272.119 47.877C271.685 48.3701 271.467 49.1147 271.467 50.1108ZM278.953 54V46.2217H280.139V47.3276C280.71 46.4731 281.536 46.0459 282.615 46.0459C283.083 46.0459 283.513 46.1313 283.904 46.3022C284.299 46.4683 284.595 46.688 284.79 46.9614C284.985 47.2349 285.122 47.5596 285.2 47.9355C285.249 48.1797 285.273 48.6069 285.273 49.2173V54H283.955V49.2686C283.955 48.7314 283.904 48.3311 283.801 48.0674C283.699 47.7988 283.516 47.5864 283.252 47.4302C282.993 47.269 282.688 47.1885 282.336 47.1885C281.775 47.1885 281.289 47.3667 280.879 47.7231C280.474 48.0796 280.271 48.7559 280.271 49.752V54H278.953ZM290.986 50.1108C290.986 48.6704 291.387 47.6035 292.188 46.9102C292.856 46.334 293.672 46.0459 294.634 46.0459C295.703 46.0459 296.577 46.3975 297.256 47.1006C297.935 47.7988 298.274 48.7656 298.274 50.001C298.274 51.002 298.123 51.7905 297.82 52.3667C297.522 52.938 297.085 53.3823 296.509 53.6997C295.938 54.0171 295.312 54.1758 294.634 54.1758C293.545 54.1758 292.664 53.8267 291.99 53.1284C291.321 52.4302 290.986 51.4243 290.986 50.1108ZM292.341 50.1108C292.341 51.1069 292.559 51.854 292.993 52.3521C293.428 52.8452 293.975 53.0918 294.634 53.0918C295.288 53.0918 295.833 52.8428 296.267 52.3447C296.702 51.8467 296.919 51.0874 296.919 50.0669C296.919 49.105 296.699 48.3774 296.26 47.8843C295.825 47.3862 295.283 47.1372 294.634 47.1372C293.975 47.1372 293.428 47.3838 292.993 47.877C292.559 48.3701 292.341 49.1147 292.341 50.1108ZM300.142 54V47.2471H298.977V46.2217H300.142V45.394C300.142 44.8716 300.188 44.4834 300.281 44.2295C300.408 43.8877 300.63 43.6118 300.947 43.4019C301.27 43.187 301.719 43.0796 302.295 43.0796C302.666 43.0796 303.076 43.1235 303.525 43.2114L303.328 44.3613C303.054 44.3125 302.795 44.2881 302.551 44.2881C302.151 44.2881 301.868 44.3735 301.702 44.5444C301.536 44.7153 301.453 45.0352 301.453 45.5039V46.2217H302.969V47.2471H301.453V54H300.142Z" fill="#191919"/>
    <path d="M157.932 80H155.188V69.6582C154.185 70.5957 153.003 71.2891 151.643 71.7383V69.248C152.359 69.0137 153.137 68.571 153.977 67.9199C154.816 67.2624 155.393 66.4974 155.705 65.625H157.932V80ZM162.043 68.4277V65.8789H171.428V67.8711C170.653 68.6328 169.865 69.7266 169.064 71.1523C168.264 72.5781 167.652 74.0951 167.229 75.7031C166.812 77.3047 166.607 78.737 166.613 80H163.967C164.012 78.0208 164.419 76.0026 165.188 73.9453C165.962 71.888 166.994 70.0488 168.283 68.4277H162.043ZM182.473 69.1895L179.816 69.4824C179.751 68.9355 179.582 68.5319 179.309 68.2715C179.035 68.0111 178.68 67.8809 178.244 67.8809C177.665 67.8809 177.173 68.1413 176.77 68.6621C176.372 69.1829 176.122 70.2669 176.018 71.9141C176.701 71.1068 177.551 70.7031 178.566 70.7031C179.712 70.7031 180.692 71.1393 181.506 72.0117C182.326 72.8841 182.736 74.0104 182.736 75.3906C182.736 76.8555 182.307 78.0306 181.447 78.916C180.588 79.8014 179.484 80.2441 178.137 80.2441C176.691 80.2441 175.503 79.6842 174.572 78.5645C173.641 77.4382 173.176 75.5957 173.176 73.0371C173.176 70.4134 173.661 68.5221 174.631 67.3633C175.601 66.2044 176.861 65.625 178.41 65.625C179.497 65.625 180.396 65.931 181.105 66.543C181.822 67.1484 182.277 68.0306 182.473 69.1895ZM176.252 75.1758C176.252 76.0677 176.457 76.7578 176.867 77.2461C177.277 77.7279 177.746 77.9688 178.273 77.9688C178.781 77.9688 179.204 77.7702 179.543 77.373C179.882 76.9759 180.051 76.3249 180.051 75.4199C180.051 74.4889 179.868 73.8086 179.504 73.3789C179.139 72.9427 178.684 72.7246 178.137 72.7246C177.609 72.7246 177.163 72.9329 176.799 73.3496C176.434 73.7598 176.252 74.3685 176.252 75.1758ZM184.826 77.2559H187.57V79.2188C187.57 80.013 187.502 80.638 187.365 81.0938C187.229 81.556 186.968 81.9694 186.584 82.334C186.206 82.6986 185.725 82.985 185.139 83.1934L184.602 82.0605C185.155 81.8783 185.549 81.6276 185.783 81.3086C186.018 80.9896 186.141 80.5534 186.154 80H184.826V77.2559ZM196.896 80H194.152V69.6582C193.15 70.5957 191.968 71.2891 190.607 71.7383V69.248C191.324 69.0137 192.102 68.571 192.941 67.9199C193.781 67.2624 194.357 66.4974 194.67 65.625H196.896V80ZM201.047 76.3184L203.781 76.0352C203.859 76.6536 204.09 77.1452 204.475 77.5098C204.859 77.8678 205.301 78.0469 205.803 78.0469C206.376 78.0469 206.861 77.8158 207.258 77.3535C207.655 76.8848 207.854 76.1816 207.854 75.2441C207.854 74.3652 207.655 73.7077 207.258 73.2715C206.867 72.8288 206.356 72.6074 205.725 72.6074C204.937 72.6074 204.23 72.9557 203.605 73.6523L201.379 73.3301L202.785 65.8789H210.041V68.4473H204.865L204.436 70.8789C205.048 70.5729 205.673 70.4199 206.311 70.4199C207.528 70.4199 208.56 70.8626 209.406 71.748C210.253 72.6335 210.676 73.7826 210.676 75.1953C210.676 76.3737 210.334 77.4251 209.65 78.3496C208.719 79.6126 207.427 80.2441 205.773 80.2441C204.452 80.2441 203.374 79.8893 202.541 79.1797C201.708 78.4701 201.21 77.5163 201.047 76.3184ZM221.438 69.1895L218.781 69.4824C218.716 68.9355 218.547 68.5319 218.273 68.2715C218 68.0111 217.645 67.8809 217.209 67.8809C216.63 67.8809 216.138 68.1413 215.734 68.6621C215.337 69.1829 215.087 70.2669 214.982 71.9141C215.666 71.1068 216.516 70.7031 217.531 70.7031C218.677 70.7031 219.657 71.1393 220.471 72.0117C221.291 72.8841 221.701 74.0104 221.701 75.3906C221.701 76.8555 221.271 78.0306 220.412 78.916C219.553 79.8014 218.449 80.2441 217.102 80.2441C215.656 80.2441 214.468 79.6842 213.537 78.5645C212.606 77.4382 212.141 75.5957 212.141 73.0371C212.141 70.4134 212.626 68.5221 213.596 67.3633C214.566 66.2044 215.826 65.625 217.375 65.625C218.462 65.625 219.361 65.931 220.07 66.543C220.786 67.1484 221.242 68.0306 221.438 69.1895ZM215.217 75.1758C215.217 76.0677 215.422 76.7578 215.832 77.2461C216.242 77.7279 216.711 77.9688 217.238 77.9688C217.746 77.9688 218.169 77.7702 218.508 77.373C218.846 76.9759 219.016 76.3249 219.016 75.4199C219.016 74.4889 218.833 73.8086 218.469 73.3789C218.104 72.9427 217.648 72.7246 217.102 72.7246C216.574 72.7246 216.128 72.9329 215.764 73.3496C215.399 73.7598 215.217 74.3685 215.217 75.1758ZM223.791 77.2559H226.535V79.2188C226.535 80.013 226.467 80.638 226.33 81.0938C226.193 81.556 225.933 81.9694 225.549 82.334C225.171 82.6986 224.689 82.985 224.104 83.1934L223.566 82.0605C224.12 81.8783 224.514 81.6276 224.748 81.3086C224.982 80.9896 225.106 80.5534 225.119 80H223.791V77.2559ZM234.221 80V77.1191H228.361V74.7168L234.572 65.625H236.877V74.707H238.654V77.1191H236.877V80H234.221ZM234.221 74.707V69.8145L230.93 74.707H234.221ZM245.354 80V77.1191H239.494V74.7168L245.705 65.625H248.01V74.707H249.787V77.1191H248.01V80H245.354ZM245.354 74.707V69.8145L242.062 74.707H245.354ZM251.105 68.4277V65.8789H260.49V67.8711C259.715 68.6328 258.928 69.7266 258.127 71.1523C257.326 72.5781 256.714 74.0951 256.291 75.7031C255.874 77.3047 255.669 78.737 255.676 80H253.029C253.075 78.0208 253.482 76.0026 254.25 73.9453C255.025 71.888 256.057 70.0488 257.346 68.4277H251.105ZM268.391 68.2227V65.6836H271.135V68.2227H268.391ZM268.391 80V69.6289H271.135V80H268.391ZM273.752 69.6289H276.281V71.0449C277.186 69.9447 278.264 69.3945 279.514 69.3945C280.178 69.3945 280.754 69.5312 281.242 69.8047C281.73 70.0781 282.131 70.4915 282.443 71.0449C282.899 70.4915 283.391 70.0781 283.918 69.8047C284.445 69.5312 285.008 69.3945 285.607 69.3945C286.369 69.3945 287.014 69.5508 287.541 69.8633C288.068 70.1693 288.462 70.6217 288.723 71.2207C288.911 71.6634 289.006 72.3796 289.006 73.3691V80H286.262V74.0723C286.262 73.0436 286.167 72.3796 285.979 72.0801C285.725 71.6895 285.334 71.4941 284.807 71.4941C284.423 71.4941 284.061 71.6113 283.723 71.8457C283.384 72.0801 283.14 72.4251 282.99 72.8809C282.84 73.3301 282.766 74.043 282.766 75.0195V80H280.021V74.3164C280.021 73.3073 279.973 72.6562 279.875 72.3633C279.777 72.0703 279.624 71.8522 279.416 71.709C279.214 71.5658 278.938 71.4941 278.586 71.4941C278.163 71.4941 277.782 71.6081 277.443 71.8359C277.105 72.0638 276.861 72.3926 276.711 72.8223C276.568 73.252 276.496 73.9648 276.496 74.9609V80H273.752V69.6289ZM293.801 72.793L291.311 72.3438C291.59 71.3411 292.072 70.599 292.756 70.1172C293.439 69.6354 294.455 69.3945 295.803 69.3945C297.027 69.3945 297.938 69.541 298.537 69.834C299.136 70.1204 299.556 70.4883 299.797 70.9375C300.044 71.3802 300.168 72.1973 300.168 73.3887L300.139 76.5918C300.139 77.5033 300.181 78.1771 300.266 78.6133C300.357 79.043 300.523 79.5052 300.764 80H298.049C297.977 79.8177 297.889 79.5475 297.785 79.1895C297.74 79.0267 297.707 78.9193 297.688 78.8672C297.219 79.3229 296.717 79.6647 296.184 79.8926C295.65 80.1204 295.08 80.2344 294.475 80.2344C293.407 80.2344 292.564 79.9447 291.945 79.3652C291.333 78.7858 291.027 78.0534 291.027 77.168C291.027 76.582 291.167 76.0612 291.447 75.6055C291.727 75.1432 292.118 74.7917 292.619 74.5508C293.127 74.3034 293.856 74.0885 294.807 73.9062C296.089 73.6654 296.978 73.4408 297.473 73.2324V72.959C297.473 72.4316 297.342 72.0573 297.082 71.8359C296.822 71.6081 296.33 71.4941 295.607 71.4941C295.119 71.4941 294.738 71.5918 294.465 71.7871C294.191 71.9759 293.97 72.3112 293.801 72.793ZM297.473 75.0195C297.121 75.1367 296.564 75.2767 295.803 75.4395C295.041 75.6022 294.543 75.7617 294.309 75.918C293.951 76.1719 293.771 76.4941 293.771 76.8848C293.771 77.2689 293.915 77.6009 294.201 77.8809C294.488 78.1608 294.852 78.3008 295.295 78.3008C295.79 78.3008 296.262 78.138 296.711 77.8125C297.043 77.5651 297.261 77.2624 297.365 76.9043C297.437 76.6699 297.473 76.224 297.473 75.5664V75.0195ZM302.629 80.6836L305.764 81.0645C305.816 81.429 305.936 81.6797 306.125 81.8164C306.385 82.0117 306.796 82.1094 307.355 82.1094C308.072 82.1094 308.609 82.002 308.967 81.7871C309.208 81.6439 309.39 81.4128 309.514 81.0938C309.598 80.8659 309.641 80.446 309.641 79.834V78.3203C308.82 79.4401 307.785 80 306.535 80C305.142 80 304.038 79.4108 303.225 78.2324C302.587 77.3014 302.268 76.1426 302.268 74.7559C302.268 73.0176 302.684 71.6895 303.518 70.7715C304.357 69.8535 305.399 69.3945 306.643 69.3945C307.925 69.3945 308.983 69.9577 309.816 71.084V69.6289H312.385V78.9355C312.385 80.1595 312.284 81.0742 312.082 81.6797C311.88 82.2852 311.597 82.7604 311.232 83.1055C310.868 83.4505 310.38 83.7207 309.768 83.916C309.162 84.1113 308.394 84.209 307.463 84.209C305.705 84.209 304.458 83.9062 303.723 83.3008C302.987 82.7018 302.619 81.9401 302.619 81.0156C302.619 80.9245 302.622 80.8138 302.629 80.6836ZM305.08 74.5996C305.08 75.6999 305.292 76.5072 305.715 77.0215C306.145 77.5293 306.672 77.7832 307.297 77.7832C307.967 77.7832 308.534 77.5228 308.996 77.002C309.458 76.4746 309.689 75.6966 309.689 74.668C309.689 73.5938 309.468 72.7962 309.025 72.2754C308.583 71.7546 308.023 71.4941 307.346 71.4941C306.688 71.4941 306.145 71.7513 305.715 72.2656C305.292 72.7734 305.08 73.5514 305.08 74.5996ZM321.115 76.6992L323.85 77.1582C323.498 78.1608 322.941 78.9258 322.18 79.4531C321.424 79.974 320.477 80.2344 319.338 80.2344C317.535 80.2344 316.2 79.6452 315.334 78.4668C314.65 77.5228 314.309 76.3314 314.309 74.8926C314.309 73.1738 314.758 71.8294 315.656 70.8594C316.555 69.8828 317.691 69.3945 319.064 69.3945C320.607 69.3945 321.825 69.9056 322.717 70.9277C323.609 71.9434 324.035 73.5026 323.996 75.6055H317.121C317.141 76.4193 317.362 77.054 317.785 77.5098C318.208 77.959 318.736 78.1836 319.367 78.1836C319.797 78.1836 320.158 78.0664 320.451 77.832C320.744 77.5977 320.965 77.2201 321.115 76.6992ZM321.271 73.9258C321.252 73.1315 321.047 72.5293 320.656 72.1191C320.266 71.7025 319.79 71.4941 319.23 71.4941C318.632 71.4941 318.137 71.7122 317.746 72.1484C317.355 72.5846 317.163 73.1771 317.17 73.9258H321.271ZM325.275 77.041L328.029 76.6211C328.146 77.1549 328.384 77.5618 328.742 77.8418C329.1 78.1152 329.602 78.252 330.246 78.252C330.956 78.252 331.49 78.1217 331.848 77.8613C332.089 77.679 332.209 77.4349 332.209 77.1289C332.209 76.9206 332.144 76.748 332.014 76.6113C331.877 76.4811 331.571 76.3607 331.096 76.25C328.882 75.7617 327.479 75.3158 326.887 74.9121C326.066 74.3522 325.656 73.5742 325.656 72.5781C325.656 71.6797 326.011 70.9245 326.721 70.3125C327.43 69.7005 328.531 69.3945 330.021 69.3945C331.441 69.3945 332.495 69.6257 333.186 70.0879C333.876 70.5501 334.351 71.2337 334.611 72.1387L332.023 72.6172C331.913 72.2135 331.701 71.9043 331.389 71.6895C331.083 71.4746 330.643 71.3672 330.07 71.3672C329.348 71.3672 328.83 71.4681 328.518 71.6699C328.309 71.8132 328.205 71.9987 328.205 72.2266C328.205 72.4219 328.296 72.5879 328.479 72.7246C328.726 72.9069 329.579 73.1641 331.037 73.4961C332.502 73.8281 333.524 74.235 334.104 74.7168C334.676 75.2051 334.963 75.8854 334.963 76.7578C334.963 77.7083 334.566 78.5254 333.771 79.209C332.977 79.8926 331.802 80.2344 330.246 80.2344C328.833 80.2344 327.714 79.9479 326.887 79.375C326.066 78.8021 325.529 78.0241 325.275 77.041Z" fill="#191919"/>
    <circle cx="55" cy="55" r="26.5" stroke="#00B67A" stroke-dasharray="5 5"/>
    <rect x="34" y="34" width="42" height="42" rx="21" fill="#00B67A"/>
    <path d="M43.7998 55.4713L52.0983 63.4L66.1998 49.9267L62.7179 46.6L51.8661 56.9683L47.0495 52.3663L43.7998 55.4713Z" fill="white"/>
    <rect x="0.75" y="0.75" width="398.5" height="108.5" rx="4.25" stroke="#F4F6F9" stroke-width="1.5"/>
</svg>
