<svg width="400" height="110" viewBox="0 0 400 110" fill="none" xmlns="http://www.w3.org/2000/svg">
    <rect x="0.75" y="0.75" width="398.5" height="108.5" rx="4.25" fill="white"/>
    <path d="M113.025 43H110.281V32.6582C109.279 33.5957 108.097 34.2891 106.736 34.7383V32.248C107.452 32.0137 108.23 31.571 109.07 30.9199C109.91 30.2624 110.486 29.4974 110.799 28.625H113.025V43ZM121.775 28.625C123.162 28.625 124.246 29.1198 125.027 30.1094C125.958 31.2812 126.424 33.2246 126.424 35.9395C126.424 38.6478 125.955 40.5944 125.018 41.7793C124.243 42.7559 123.162 43.2441 121.775 43.2441C120.382 43.2441 119.259 42.7103 118.406 41.6426C117.553 40.5684 117.127 38.6576 117.127 35.9102C117.127 33.2148 117.596 31.2747 118.533 30.0898C119.308 29.1133 120.389 28.625 121.775 28.625ZM121.775 30.9004C121.443 30.9004 121.147 31.0078 120.887 31.2227C120.626 31.431 120.424 31.8086 120.281 32.3555C120.092 33.0651 119.998 34.2598 119.998 35.9395C119.998 37.6191 120.083 38.7747 120.252 39.4062C120.421 40.0312 120.633 40.4479 120.887 40.6562C121.147 40.8646 121.443 40.9688 121.775 40.9688C122.107 40.9688 122.404 40.8646 122.664 40.6562C122.924 40.4414 123.126 40.0605 123.27 39.5137C123.458 38.8105 123.553 37.6191 123.553 35.9395C123.553 34.2598 123.468 33.1074 123.299 32.4824C123.13 31.8509 122.915 31.431 122.654 31.2227C122.4 31.0078 122.107 30.9004 121.775 30.9004ZM132.908 28.625C134.295 28.625 135.379 29.1198 136.16 30.1094C137.091 31.2812 137.557 33.2246 137.557 35.9395C137.557 38.6478 137.088 40.5944 136.15 41.7793C135.376 42.7559 134.295 43.2441 132.908 43.2441C131.515 43.2441 130.392 42.7103 129.539 41.6426C128.686 40.5684 128.26 38.6576 128.26 35.9102C128.26 33.2148 128.729 31.2747 129.666 30.0898C130.441 29.1133 131.521 28.625 132.908 28.625ZM132.908 30.9004C132.576 30.9004 132.28 31.0078 132.02 31.2227C131.759 31.431 131.557 31.8086 131.414 32.3555C131.225 33.0651 131.131 34.2598 131.131 35.9395C131.131 37.6191 131.215 38.7747 131.385 39.4062C131.554 40.0312 131.766 40.4479 132.02 40.6562C132.28 40.8646 132.576 40.9688 132.908 40.9688C133.24 40.9688 133.536 40.8646 133.797 40.6562C134.057 40.4414 134.259 40.0605 134.402 39.5137C134.591 38.8105 134.686 37.6191 134.686 35.9395C134.686 34.2598 134.601 33.1074 134.432 32.4824C134.262 31.8509 134.048 31.431 133.787 31.2227C133.533 31.0078 133.24 30.9004 132.908 30.9004ZM139.422 32.2188C139.422 30.9362 139.702 29.9857 140.262 29.3672C140.828 28.7487 141.593 28.4395 142.557 28.4395C143.553 28.4395 144.331 28.7487 144.891 29.3672C145.457 29.9792 145.74 30.9297 145.74 32.2188C145.74 33.5013 145.457 34.4518 144.891 35.0703C144.331 35.6888 143.569 35.998 142.605 35.998C141.609 35.998 140.828 35.6921 140.262 35.0801C139.702 34.4616 139.422 33.5078 139.422 32.2188ZM141.561 32.1992C141.561 33.1302 141.668 33.7552 141.883 34.0742C142.046 34.3086 142.27 34.4258 142.557 34.4258C142.85 34.4258 143.077 34.3086 143.24 34.0742C143.449 33.7552 143.553 33.1302 143.553 32.1992C143.553 31.2682 143.449 30.6465 143.24 30.334C143.077 30.0931 142.85 29.9727 142.557 29.9727C142.27 29.9727 142.046 30.0898 141.883 30.3242C141.668 30.6432 141.561 31.2682 141.561 32.1992ZM144.646 43.5469H142.615L150.242 28.4395H152.215L144.646 43.5469ZM149.08 39.7871C149.08 38.5046 149.36 37.554 149.92 36.9355C150.486 36.3171 151.258 36.0078 152.234 36.0078C153.217 36.0078 153.989 36.3171 154.549 36.9355C155.115 37.554 155.398 38.5046 155.398 39.7871C155.398 41.0762 155.115 42.0299 154.549 42.6484C153.989 43.2669 153.227 43.5762 152.264 43.5762C151.268 43.5762 150.486 43.2669 149.92 42.6484C149.36 42.0299 149.08 41.0762 149.08 39.7871ZM151.219 39.7773C151.219 40.7083 151.326 41.3301 151.541 41.6426C151.704 41.8835 151.928 42.0039 152.215 42.0039C152.508 42.0039 152.732 41.8867 152.889 41.6523C153.104 41.3333 153.211 40.7083 153.211 39.7773C153.211 38.8464 153.107 38.2214 152.898 37.9023C152.736 37.668 152.508 37.5508 152.215 37.5508C151.922 37.5508 151.697 37.668 151.541 37.9023C151.326 38.2214 151.219 38.8464 151.219 39.7773ZM163.143 32.6289H165.672V34.0449C166.577 32.9447 167.654 32.3945 168.904 32.3945C169.568 32.3945 170.145 32.5312 170.633 32.8047C171.121 33.0781 171.521 33.4915 171.834 34.0449C172.29 33.4915 172.781 33.0781 173.309 32.8047C173.836 32.5312 174.399 32.3945 174.998 32.3945C175.76 32.3945 176.404 32.5508 176.932 32.8633C177.459 33.1693 177.853 33.6217 178.113 34.2207C178.302 34.6634 178.396 35.3796 178.396 36.3691V43H175.652V37.0723C175.652 36.0436 175.558 35.3796 175.369 35.0801C175.115 34.6895 174.725 34.4941 174.197 34.4941C173.813 34.4941 173.452 34.6113 173.113 34.8457C172.775 35.0801 172.531 35.4251 172.381 35.8809C172.231 36.3301 172.156 37.043 172.156 38.0195V43H169.412V37.3164C169.412 36.3073 169.363 35.6562 169.266 35.3633C169.168 35.0703 169.015 34.8522 168.807 34.709C168.605 34.5658 168.328 34.4941 167.977 34.4941C167.553 34.4941 167.173 34.6081 166.834 34.8359C166.495 35.0638 166.251 35.3926 166.102 35.8223C165.958 36.252 165.887 36.9648 165.887 37.9609V43H163.143V32.6289ZM180.506 37.668C180.506 36.7565 180.73 35.8743 181.18 35.0215C181.629 34.1686 182.264 33.5176 183.084 33.0684C183.911 32.6191 184.832 32.3945 185.848 32.3945C187.417 32.3945 188.702 32.9056 189.705 33.9277C190.708 34.9434 191.209 36.2292 191.209 37.7852C191.209 39.3542 190.701 40.6562 189.686 41.6914C188.676 42.7201 187.404 43.2344 185.867 43.2344C184.917 43.2344 184.008 43.0195 183.143 42.5898C182.283 42.1602 181.629 41.5319 181.18 40.7051C180.73 39.8717 180.506 38.8594 180.506 37.668ZM183.318 37.8145C183.318 38.8431 183.562 39.6309 184.051 40.1777C184.539 40.7246 185.141 40.998 185.857 40.998C186.574 40.998 187.173 40.7246 187.654 40.1777C188.143 39.6309 188.387 38.8366 188.387 37.7949C188.387 36.7793 188.143 35.998 187.654 35.4512C187.173 34.9043 186.574 34.6309 185.857 34.6309C185.141 34.6309 184.539 34.9043 184.051 35.4512C183.562 35.998 183.318 36.7858 183.318 37.8145ZM202.801 43H200.057V37.707C200.057 36.5872 199.998 35.8646 199.881 35.5391C199.764 35.207 199.572 34.9499 199.305 34.7676C199.044 34.5853 198.729 34.4941 198.357 34.4941C197.882 34.4941 197.456 34.6243 197.078 34.8848C196.701 35.1452 196.44 35.4902 196.297 35.9199C196.16 36.3496 196.092 37.1439 196.092 38.3027V43H193.348V32.6289H195.896V34.1523C196.801 32.9805 197.941 32.3945 199.314 32.3945C199.92 32.3945 200.473 32.5052 200.975 32.7266C201.476 32.9414 201.854 33.2181 202.107 33.5566C202.368 33.8952 202.547 34.2793 202.645 34.709C202.749 35.1387 202.801 35.7539 202.801 36.5547V43ZM211.6 39.6992L214.334 40.1582C213.982 41.1608 213.426 41.9258 212.664 42.4531C211.909 42.974 210.962 43.2344 209.822 43.2344C208.019 43.2344 206.684 42.6452 205.818 41.4668C205.135 40.5228 204.793 39.3314 204.793 37.8926C204.793 36.1738 205.242 34.8294 206.141 33.8594C207.039 32.8828 208.175 32.3945 209.549 32.3945C211.092 32.3945 212.309 32.9056 213.201 33.9277C214.093 34.9434 214.52 36.5026 214.48 38.6055H207.605C207.625 39.4193 207.846 40.054 208.27 40.5098C208.693 40.959 209.22 41.1836 209.852 41.1836C210.281 41.1836 210.643 41.0664 210.936 40.832C211.229 40.5977 211.45 40.2201 211.6 39.6992ZM211.756 36.9258C211.736 36.1315 211.531 35.5293 211.141 35.1191C210.75 34.7025 210.275 34.4941 209.715 34.4941C209.116 34.4941 208.621 34.7122 208.23 35.1484C207.84 35.5846 207.648 36.1771 207.654 36.9258H211.756ZM215.428 32.6289H218.348L220.828 39.9922L223.25 32.6289H226.092L222.43 42.6094L221.775 44.416C221.535 45.0215 221.303 45.4837 221.082 45.8027C220.867 46.1217 220.617 46.3789 220.33 46.5742C220.05 46.776 219.702 46.9323 219.285 47.043C218.875 47.1536 218.41 47.209 217.889 47.209C217.361 47.209 216.844 47.1536 216.336 47.043L216.092 44.8945C216.521 44.9792 216.909 45.0215 217.254 45.0215C217.892 45.0215 218.364 44.8327 218.67 44.4551C218.976 44.084 219.21 43.6087 219.373 43.0293L215.428 32.6289ZM233.309 43V28.6836H236.053V33.8398C236.899 32.8763 237.902 32.3945 239.061 32.3945C240.324 32.3945 241.368 32.8535 242.195 33.7715C243.022 34.6829 243.436 35.9948 243.436 37.707C243.436 39.4779 243.012 40.8418 242.166 41.7988C241.326 42.7559 240.304 43.2344 239.1 43.2344C238.507 43.2344 237.921 43.0879 237.342 42.7949C236.769 42.4954 236.274 42.056 235.857 41.4766V43H233.309ZM236.033 37.5898C236.033 38.6641 236.202 39.4583 236.541 39.9727C237.016 40.7018 237.648 41.0664 238.436 41.0664C239.041 41.0664 239.555 40.8092 239.979 40.2949C240.408 39.7741 240.623 38.957 240.623 37.8438C240.623 36.6589 240.408 35.806 239.979 35.2852C239.549 34.7578 238.999 34.4941 238.328 34.4941C237.671 34.4941 237.124 34.7513 236.688 35.2656C236.251 35.7734 236.033 36.5482 236.033 37.5898ZM247.703 35.793L245.213 35.3438C245.493 34.3411 245.975 33.599 246.658 33.1172C247.342 32.6354 248.357 32.3945 249.705 32.3945C250.929 32.3945 251.84 32.541 252.439 32.834C253.038 33.1204 253.458 33.4883 253.699 33.9375C253.947 34.3802 254.07 35.1973 254.07 36.3887L254.041 39.5918C254.041 40.5033 254.083 41.1771 254.168 41.6133C254.259 42.043 254.425 42.5052 254.666 43H251.951C251.88 42.8177 251.792 42.5475 251.688 42.1895C251.642 42.0267 251.609 41.9193 251.59 41.8672C251.121 42.3229 250.62 42.6647 250.086 42.8926C249.552 43.1204 248.982 43.2344 248.377 43.2344C247.309 43.2344 246.466 42.9447 245.848 42.3652C245.236 41.7858 244.93 41.0534 244.93 40.168C244.93 39.582 245.07 39.0612 245.35 38.6055C245.63 38.1432 246.02 37.7917 246.521 37.5508C247.029 37.3034 247.758 37.0885 248.709 36.9062C249.992 36.6654 250.88 36.4408 251.375 36.2324V35.959C251.375 35.4316 251.245 35.0573 250.984 34.8359C250.724 34.6081 250.232 34.4941 249.51 34.4941C249.021 34.4941 248.641 34.5918 248.367 34.7871C248.094 34.9759 247.872 35.3112 247.703 35.793ZM251.375 38.0195C251.023 38.1367 250.467 38.2767 249.705 38.4395C248.943 38.6022 248.445 38.7617 248.211 38.918C247.853 39.1719 247.674 39.4941 247.674 39.8848C247.674 40.2689 247.817 40.6009 248.104 40.8809C248.39 41.1608 248.755 41.3008 249.197 41.3008C249.692 41.3008 250.164 41.138 250.613 40.8125C250.945 40.5651 251.163 40.2624 251.268 39.9043C251.339 39.6699 251.375 39.224 251.375 38.5664V38.0195ZM265.828 35.6953L263.123 36.1836C263.032 35.6432 262.824 35.2363 262.498 34.9629C262.179 34.6895 261.762 34.5527 261.248 34.5527C260.564 34.5527 260.018 34.7904 259.607 35.2656C259.204 35.7344 259.002 36.5221 259.002 37.6289C259.002 38.8594 259.207 39.7285 259.617 40.2363C260.034 40.7441 260.59 40.998 261.287 40.998C261.808 40.998 262.234 40.8516 262.566 40.5586C262.898 40.2591 263.133 39.748 263.27 39.0254L265.965 39.4844C265.685 40.7214 265.148 41.6556 264.354 42.2871C263.559 42.9186 262.495 43.2344 261.16 43.2344C259.643 43.2344 258.432 42.7559 257.527 41.7988C256.629 40.8418 256.18 39.5169 256.18 37.8242C256.18 36.112 256.632 34.7806 257.537 33.8301C258.442 32.873 259.666 32.3945 261.209 32.3945C262.472 32.3945 263.475 32.668 264.217 33.2148C264.965 33.7552 265.503 34.582 265.828 35.6953ZM267.82 43V28.6836H270.564V36.2812L273.777 32.6289H277.156L273.611 36.418L277.41 43H274.451L271.844 38.3418L270.564 39.6797V43H267.82ZM284.363 43.6836L287.498 44.0645C287.55 44.429 287.671 44.6797 287.859 44.8164C288.12 45.0117 288.53 45.1094 289.09 45.1094C289.806 45.1094 290.343 45.002 290.701 44.7871C290.942 44.6439 291.124 44.4128 291.248 44.0938C291.333 43.8659 291.375 43.446 291.375 42.834V41.3203C290.555 42.4401 289.52 43 288.27 43C286.876 43 285.773 42.4108 284.959 41.2324C284.321 40.3014 284.002 39.1426 284.002 37.7559C284.002 36.0176 284.419 34.6895 285.252 33.7715C286.092 32.8535 287.133 32.3945 288.377 32.3945C289.66 32.3945 290.717 32.9577 291.551 34.084V32.6289H294.119V41.9355C294.119 43.1595 294.018 44.0742 293.816 44.6797C293.615 45.2852 293.331 45.7604 292.967 46.1055C292.602 46.4505 292.114 46.7207 291.502 46.916C290.896 47.1113 290.128 47.209 289.197 47.209C287.439 47.209 286.193 46.9062 285.457 46.3008C284.721 45.7018 284.354 44.9401 284.354 44.0156C284.354 43.9245 284.357 43.8138 284.363 43.6836ZM286.814 37.5996C286.814 38.6999 287.026 39.5072 287.449 40.0215C287.879 40.5293 288.406 40.7832 289.031 40.7832C289.702 40.7832 290.268 40.5228 290.73 40.002C291.193 39.4746 291.424 38.6966 291.424 37.668C291.424 36.5938 291.202 35.7962 290.76 35.2754C290.317 34.7546 289.757 34.4941 289.08 34.4941C288.423 34.4941 287.879 34.7513 287.449 35.2656C287.026 35.7734 286.814 36.5514 286.814 37.5996ZM303.67 43V41.4473C303.292 42.0007 302.794 42.4368 302.176 42.7559C301.564 43.0749 300.916 43.2344 300.232 43.2344C299.536 43.2344 298.911 43.0814 298.357 42.7754C297.804 42.4694 297.404 42.0397 297.156 41.4863C296.909 40.9329 296.785 40.168 296.785 39.1914V32.6289H299.529V37.3945C299.529 38.8529 299.578 39.748 299.676 40.0801C299.78 40.4056 299.965 40.666 300.232 40.8613C300.499 41.0501 300.838 41.1445 301.248 41.1445C301.717 41.1445 302.137 41.0176 302.508 40.7637C302.879 40.5033 303.133 40.1842 303.27 39.8066C303.406 39.4225 303.475 38.4883 303.475 37.0039V32.6289H306.219V43H303.67ZM311.121 35.793L308.631 35.3438C308.911 34.3411 309.393 33.599 310.076 33.1172C310.76 32.6354 311.775 32.3945 313.123 32.3945C314.347 32.3945 315.258 32.541 315.857 32.834C316.456 33.1204 316.876 33.4883 317.117 33.9375C317.365 34.3802 317.488 35.1973 317.488 36.3887L317.459 39.5918C317.459 40.5033 317.501 41.1771 317.586 41.6133C317.677 42.043 317.843 42.5052 318.084 43H315.369C315.298 42.8177 315.21 42.5475 315.105 42.1895C315.06 42.0267 315.027 41.9193 315.008 41.8672C314.539 42.3229 314.038 42.6647 313.504 42.8926C312.97 43.1204 312.4 43.2344 311.795 43.2344C310.727 43.2344 309.884 42.9447 309.266 42.3652C308.654 41.7858 308.348 41.0534 308.348 40.168C308.348 39.582 308.488 39.0612 308.768 38.6055C309.048 38.1432 309.438 37.7917 309.939 37.5508C310.447 37.3034 311.176 37.0885 312.127 36.9062C313.41 36.6654 314.298 36.4408 314.793 36.2324V35.959C314.793 35.4316 314.663 35.0573 314.402 34.8359C314.142 34.6081 313.65 34.4941 312.928 34.4941C312.439 34.4941 312.059 34.5918 311.785 34.7871C311.512 34.9759 311.29 35.3112 311.121 35.793ZM314.793 38.0195C314.441 38.1367 313.885 38.2767 313.123 38.4395C312.361 38.6022 311.863 38.7617 311.629 38.918C311.271 39.1719 311.092 39.4941 311.092 39.8848C311.092 40.2689 311.235 40.6009 311.521 40.8809C311.808 41.1608 312.173 41.3008 312.615 41.3008C313.11 41.3008 313.582 41.138 314.031 40.8125C314.363 40.5651 314.581 40.2624 314.686 39.9043C314.757 39.6699 314.793 39.224 314.793 38.5664V38.0195ZM322.83 43H320.086V32.6289H322.635V34.1035C323.071 33.4069 323.462 32.9479 323.807 32.7266C324.158 32.5052 324.555 32.3945 324.998 32.3945C325.623 32.3945 326.225 32.5671 326.805 32.9121L325.955 35.3047C325.493 35.0052 325.063 34.8555 324.666 34.8555C324.282 34.8555 323.956 34.9629 323.689 35.1777C323.423 35.3861 323.211 35.7669 323.055 36.3203C322.905 36.8737 322.83 38.0326 322.83 39.7969V43ZM330.047 35.793L327.557 35.3438C327.837 34.3411 328.318 33.599 329.002 33.1172C329.686 32.6354 330.701 32.3945 332.049 32.3945C333.273 32.3945 334.184 32.541 334.783 32.834C335.382 33.1204 335.802 33.4883 336.043 33.9375C336.29 34.3802 336.414 35.1973 336.414 36.3887L336.385 39.5918C336.385 40.5033 336.427 41.1771 336.512 41.6133C336.603 42.043 336.769 42.5052 337.01 43H334.295C334.223 42.8177 334.135 42.5475 334.031 42.1895C333.986 42.0267 333.953 41.9193 333.934 41.8672C333.465 42.3229 332.964 42.6647 332.43 42.8926C331.896 43.1204 331.326 43.2344 330.721 43.2344C329.653 43.2344 328.81 42.9447 328.191 42.3652C327.579 41.7858 327.273 41.0534 327.273 40.168C327.273 39.582 327.413 39.0612 327.693 38.6055C327.973 38.1432 328.364 37.7917 328.865 37.5508C329.373 37.3034 330.102 37.0885 331.053 36.9062C332.335 36.6654 333.224 36.4408 333.719 36.2324V35.959C333.719 35.4316 333.589 35.0573 333.328 34.8359C333.068 34.6081 332.576 34.4941 331.854 34.4941C331.365 34.4941 330.984 34.5918 330.711 34.7871C330.438 34.9759 330.216 35.3112 330.047 35.793ZM333.719 38.0195C333.367 38.1367 332.811 38.2767 332.049 38.4395C331.287 38.6022 330.789 38.7617 330.555 38.918C330.197 39.1719 330.018 39.4941 330.018 39.8848C330.018 40.2689 330.161 40.6009 330.447 40.8809C330.734 41.1608 331.098 41.3008 331.541 41.3008C332.036 41.3008 332.508 41.138 332.957 40.8125C333.289 40.5651 333.507 40.2624 333.611 39.9043C333.683 39.6699 333.719 39.224 333.719 38.5664V38.0195ZM348.562 43H345.818V37.707C345.818 36.5872 345.76 35.8646 345.643 35.5391C345.525 35.207 345.333 34.9499 345.066 34.7676C344.806 34.5853 344.49 34.4941 344.119 34.4941C343.644 34.4941 343.217 34.6243 342.84 34.8848C342.462 35.1452 342.202 35.4902 342.059 35.9199C341.922 36.3496 341.854 37.1439 341.854 38.3027V43H339.109V32.6289H341.658V34.1523C342.563 32.9805 343.702 32.3945 345.076 32.3945C345.682 32.3945 346.235 32.5052 346.736 32.7266C347.238 32.9414 347.615 33.2181 347.869 33.5566C348.13 33.8952 348.309 34.2793 348.406 34.709C348.51 35.1387 348.562 35.7539 348.562 36.5547V43ZM356.111 32.6289V34.8164H354.236V38.9961C354.236 39.8424 354.253 40.3372 354.285 40.4805C354.324 40.6172 354.406 40.7311 354.529 40.8223C354.66 40.9134 354.816 40.959 354.998 40.959C355.252 40.959 355.62 40.8711 356.102 40.6953L356.336 42.8242C355.698 43.0977 354.975 43.2344 354.168 43.2344C353.673 43.2344 353.227 43.153 352.83 42.9902C352.433 42.821 352.14 42.6061 351.951 42.3457C351.769 42.0788 351.642 41.7207 351.57 41.2715C351.512 40.9525 351.482 40.3079 351.482 39.3379V34.8164H350.223V32.6289H351.482V30.5684L354.236 28.9668V32.6289H356.111ZM364.021 39.6992L366.756 40.1582C366.404 41.1608 365.848 41.9258 365.086 42.4531C364.331 42.974 363.383 43.2344 362.244 43.2344C360.441 43.2344 359.106 42.6452 358.24 41.4668C357.557 40.5228 357.215 39.3314 357.215 37.8926C357.215 36.1738 357.664 34.8294 358.562 33.8594C359.461 32.8828 360.597 32.3945 361.971 32.3945C363.514 32.3945 364.731 32.9056 365.623 33.9277C366.515 34.9434 366.941 36.5026 366.902 38.6055H360.027C360.047 39.4193 360.268 40.054 360.691 40.5098C361.115 40.959 361.642 41.1836 362.273 41.1836C362.703 41.1836 363.064 41.0664 363.357 40.832C363.65 40.5977 363.872 40.2201 364.021 39.6992ZM364.178 36.9258C364.158 36.1315 363.953 35.5293 363.562 35.1191C363.172 34.7025 362.697 34.4941 362.137 34.4941C361.538 34.4941 361.043 34.7122 360.652 35.1484C360.262 35.5846 360.07 36.1771 360.076 36.9258H364.178ZM375.154 39.6992L377.889 40.1582C377.537 41.1608 376.98 41.9258 376.219 42.4531C375.464 42.974 374.516 43.2344 373.377 43.2344C371.574 43.2344 370.239 42.6452 369.373 41.4668C368.689 40.5228 368.348 39.3314 368.348 37.8926C368.348 36.1738 368.797 34.8294 369.695 33.8594C370.594 32.8828 371.73 32.3945 373.104 32.3945C374.646 32.3945 375.864 32.9056 376.756 33.9277C377.648 34.9434 378.074 36.5026 378.035 38.6055H371.16C371.18 39.4193 371.401 40.054 371.824 40.5098C372.247 40.959 372.775 41.1836 373.406 41.1836C373.836 41.1836 374.197 41.0664 374.49 40.832C374.783 40.5977 375.005 40.2201 375.154 39.6992ZM375.311 36.9258C375.291 36.1315 375.086 35.5293 374.695 35.1191C374.305 34.7025 373.829 34.4941 373.27 34.4941C372.671 34.4941 372.176 34.7122 371.785 35.1484C371.395 35.5846 371.202 36.1771 371.209 36.9258H375.311Z" fill="#191919"/>
    <path d="M143.064 55.7788V54.2627H144.383V55.7788H143.064ZM143.064 65V57.2217H144.383V65H143.064ZM146.712 65V58.2471H145.547V57.2217H146.712V56.394C146.712 55.8716 146.758 55.4834 146.851 55.2295C146.978 54.8877 147.2 54.6118 147.518 54.4019C147.84 54.187 148.289 54.0796 148.865 54.0796C149.236 54.0796 149.646 54.1235 150.096 54.2114L149.898 55.3613C149.625 55.3125 149.366 55.2881 149.122 55.2881C148.721 55.2881 148.438 55.3735 148.272 55.5444C148.106 55.7153 148.023 56.0352 148.023 56.5039V57.2217H149.539V58.2471H148.023V65H146.712ZM154.688 67.9956L154.542 66.7578C154.83 66.8359 155.081 66.875 155.296 66.875C155.589 66.875 155.823 66.8262 155.999 66.7285C156.175 66.6309 156.319 66.4941 156.431 66.3184C156.514 66.1865 156.648 65.8594 156.834 65.3369C156.858 65.2637 156.897 65.1562 156.951 65.0146L154 57.2217H155.42L157.039 61.7261C157.249 62.2974 157.437 62.8979 157.603 63.5278C157.754 62.9224 157.935 62.3315 158.145 61.7554L159.808 57.2217H161.126L158.167 65.1318C157.85 65.9863 157.603 66.5747 157.427 66.897C157.193 67.3315 156.924 67.6489 156.622 67.8491C156.319 68.0542 155.958 68.1567 155.538 68.1567C155.284 68.1567 155 68.103 154.688 67.9956ZM161.756 61.1108C161.756 59.6704 162.156 58.6035 162.957 57.9102C163.626 57.334 164.441 57.0459 165.403 57.0459C166.473 57.0459 167.347 57.3975 168.025 58.1006C168.704 58.7988 169.043 59.7656 169.043 61.001C169.043 62.002 168.892 62.7905 168.589 63.3667C168.292 63.938 167.854 64.3823 167.278 64.6997C166.707 65.0171 166.082 65.1758 165.403 65.1758C164.314 65.1758 163.433 64.8267 162.759 64.1284C162.09 63.4302 161.756 62.4243 161.756 61.1108ZM163.111 61.1108C163.111 62.1069 163.328 62.854 163.763 63.3521C164.197 63.8452 164.744 64.0918 165.403 64.0918C166.058 64.0918 166.602 63.8428 167.037 63.3447C167.471 62.8467 167.688 62.0874 167.688 61.0669C167.688 60.105 167.469 59.3774 167.029 58.8843C166.595 58.3862 166.053 58.1372 165.403 58.1372C164.744 58.1372 164.197 58.3838 163.763 58.877C163.328 59.3701 163.111 60.1147 163.111 61.1108ZM175.694 65V63.8574C175.088 64.7363 174.266 65.1758 173.226 65.1758C172.767 65.1758 172.337 65.0879 171.937 64.9121C171.541 64.7363 171.246 64.5166 171.05 64.2529C170.86 63.9844 170.726 63.6572 170.647 63.2715C170.594 63.0127 170.567 62.6025 170.567 62.041V57.2217H171.885V61.5356C171.885 62.2241 171.912 62.688 171.966 62.9272C172.049 63.2739 172.225 63.5474 172.493 63.7476C172.762 63.9429 173.094 64.0405 173.489 64.0405C173.885 64.0405 174.256 63.9404 174.603 63.7402C174.949 63.5352 175.193 63.2593 175.335 62.9126C175.481 62.561 175.555 62.0532 175.555 61.3892V57.2217H176.873V65H175.694ZM188.167 65V64.0186C187.674 64.79 186.949 65.1758 185.992 65.1758C185.372 65.1758 184.8 65.0049 184.278 64.6631C183.76 64.3213 183.357 63.8452 183.069 63.2349C182.786 62.6196 182.645 61.9141 182.645 61.1182C182.645 60.3418 182.774 59.6387 183.033 59.0088C183.292 58.374 183.68 57.8882 184.197 57.5513C184.715 57.2144 185.293 57.0459 185.933 57.0459C186.402 57.0459 186.819 57.146 187.186 57.3462C187.552 57.5415 187.85 57.7979 188.079 58.1152V54.2627H189.39V65H188.167ZM184 61.1182C184 62.1143 184.209 62.8589 184.629 63.3521C185.049 63.8452 185.545 64.0918 186.116 64.0918C186.692 64.0918 187.181 63.8574 187.581 63.3887C187.986 62.915 188.189 62.1948 188.189 61.228C188.189 60.1636 187.984 59.3823 187.574 58.8843C187.164 58.3862 186.658 58.1372 186.058 58.1372C185.472 58.1372 184.981 58.3765 184.585 58.855C184.195 59.3335 184 60.0879 184 61.1182ZM190.979 61.1108C190.979 59.6704 191.38 58.6035 192.181 57.9102C192.85 57.334 193.665 57.0459 194.627 57.0459C195.696 57.0459 196.57 57.3975 197.249 58.1006C197.928 58.7988 198.267 59.7656 198.267 61.001C198.267 62.002 198.116 62.7905 197.813 63.3667C197.515 63.938 197.078 64.3823 196.502 64.6997C195.931 65.0171 195.306 65.1758 194.627 65.1758C193.538 65.1758 192.657 64.8267 191.983 64.1284C191.314 63.4302 190.979 62.4243 190.979 61.1108ZM192.334 61.1108C192.334 62.1069 192.552 62.854 192.986 63.3521C193.421 63.8452 193.968 64.0918 194.627 64.0918C195.281 64.0918 195.826 63.8428 196.26 63.3447C196.695 62.8467 196.912 62.0874 196.912 61.0669C196.912 60.105 196.692 59.3774 196.253 58.8843C195.818 58.3862 195.276 58.1372 194.627 58.1372C193.968 58.1372 193.421 58.3838 192.986 58.877C192.552 59.3701 192.334 60.1147 192.334 61.1108ZM199.82 65V57.2217H201.006V58.3276C201.578 57.4731 202.403 57.0459 203.482 57.0459C203.951 57.0459 204.38 57.1313 204.771 57.3022C205.167 57.4683 205.462 57.688 205.657 57.9614C205.853 58.2349 205.989 58.5596 206.067 58.9355C206.116 59.1797 206.141 59.6069 206.141 60.2173V65H204.822V60.2686C204.822 59.7314 204.771 59.3311 204.668 59.0674C204.566 58.7988 204.383 58.5864 204.119 58.4302C203.86 58.269 203.555 58.1885 203.204 58.1885C202.642 58.1885 202.156 58.3667 201.746 58.7231C201.341 59.0796 201.138 59.7559 201.138 60.752V65H199.82ZM208.177 58.064L207.84 56.0571V54.2627H209.341V56.0571L208.99 58.064H208.177ZM213.919 63.8208L214.109 64.9854C213.738 65.0635 213.406 65.1025 213.113 65.1025C212.635 65.1025 212.264 65.0269 212 64.8755C211.736 64.7241 211.551 64.5264 211.443 64.2822C211.336 64.0332 211.282 63.5132 211.282 62.7222V58.2471H210.315V57.2217H211.282V55.2954L212.593 54.5044V57.2217H213.919V58.2471H212.593V62.7954C212.593 63.1714 212.615 63.4131 212.659 63.5205C212.708 63.6279 212.784 63.7134 212.886 63.7769C212.994 63.8403 213.145 63.8721 213.34 63.8721C213.487 63.8721 213.68 63.855 213.919 63.8208ZM224.437 65V64.0186C223.943 64.79 223.218 65.1758 222.261 65.1758C221.641 65.1758 221.07 65.0049 220.547 64.6631C220.03 64.3213 219.627 63.8452 219.339 63.2349C219.056 62.6196 218.914 61.9141 218.914 61.1182C218.914 60.3418 219.043 59.6387 219.302 59.0088C219.561 58.374 219.949 57.8882 220.467 57.5513C220.984 57.2144 221.563 57.0459 222.203 57.0459C222.671 57.0459 223.089 57.146 223.455 57.3462C223.821 57.5415 224.119 57.7979 224.349 58.1152V54.2627H225.66V65H224.437ZM220.269 61.1182C220.269 62.1143 220.479 62.8589 220.899 63.3521C221.319 63.8452 221.814 64.0918 222.386 64.0918C222.962 64.0918 223.45 63.8574 223.851 63.3887C224.256 62.915 224.458 62.1948 224.458 61.228C224.458 60.1636 224.253 59.3823 223.843 58.8843C223.433 58.3862 222.928 58.1372 222.327 58.1372C221.741 58.1372 221.25 58.3765 220.855 58.855C220.464 59.3335 220.269 60.0879 220.269 61.1182ZM227.249 61.1108C227.249 59.6704 227.649 58.6035 228.45 57.9102C229.119 57.334 229.935 57.0459 230.896 57.0459C231.966 57.0459 232.84 57.3975 233.519 58.1006C234.197 58.7988 234.537 59.7656 234.537 61.001C234.537 62.002 234.385 62.7905 234.083 63.3667C233.785 63.938 233.348 64.3823 232.771 64.6997C232.2 65.0171 231.575 65.1758 230.896 65.1758C229.808 65.1758 228.926 64.8267 228.252 64.1284C227.583 63.4302 227.249 62.4243 227.249 61.1108ZM228.604 61.1108C228.604 62.1069 228.821 62.854 229.256 63.3521C229.69 63.8452 230.237 64.0918 230.896 64.0918C231.551 64.0918 232.095 63.8428 232.53 63.3447C232.964 62.8467 233.182 62.0874 233.182 61.0669C233.182 60.105 232.962 59.3774 232.522 58.8843C232.088 58.3862 231.546 58.1372 230.896 58.1372C230.237 58.1372 229.69 58.3838 229.256 58.877C228.821 59.3701 228.604 60.1147 228.604 61.1108ZM237.525 65L235.145 57.2217H236.507L237.745 61.7114L238.206 63.3813C238.226 63.2983 238.36 62.7637 238.609 61.7773L239.847 57.2217H241.202L242.366 61.7334L242.754 63.2202L243.201 61.7188L244.534 57.2217H245.816L243.384 65H242.015L240.777 60.3418L240.477 59.0161L238.902 65H237.525ZM246.929 65V57.2217H248.116V58.3276C248.687 57.4731 249.512 57.0459 250.591 57.0459C251.06 57.0459 251.49 57.1313 251.88 57.3022C252.276 57.4683 252.571 57.688 252.767 57.9614C252.962 58.2349 253.099 58.5596 253.177 58.9355C253.226 59.1797 253.25 59.6069 253.25 60.2173V65H251.932V60.2686C251.932 59.7314 251.88 59.3311 251.778 59.0674C251.675 58.7988 251.492 58.5864 251.229 58.4302C250.97 58.269 250.665 58.1885 250.313 58.1885C249.751 58.1885 249.266 58.3667 248.855 58.7231C248.45 59.0796 248.248 59.7559 248.248 60.752V65H246.929ZM255.25 65V54.2627H256.568V65H255.25ZM258.128 61.1108C258.128 59.6704 258.528 58.6035 259.329 57.9102C259.998 57.334 260.813 57.0459 261.775 57.0459C262.845 57.0459 263.719 57.3975 264.397 58.1006C265.076 58.7988 265.416 59.7656 265.416 61.001C265.416 62.002 265.264 62.7905 264.961 63.3667C264.664 63.938 264.227 64.3823 263.65 64.6997C263.079 65.0171 262.454 65.1758 261.775 65.1758C260.687 65.1758 259.805 64.8267 259.131 64.1284C258.462 63.4302 258.128 62.4243 258.128 61.1108ZM259.483 61.1108C259.483 62.1069 259.7 62.854 260.135 63.3521C260.569 63.8452 261.116 64.0918 261.775 64.0918C262.43 64.0918 262.974 63.8428 263.409 63.3447C263.843 62.8467 264.061 62.0874 264.061 61.0669C264.061 60.105 263.841 59.3774 263.401 58.8843C262.967 58.3862 262.425 58.1372 261.775 58.1372C261.116 58.1372 260.569 58.3838 260.135 58.877C259.7 59.3701 259.483 60.1147 259.483 61.1108ZM272.044 64.0405C271.556 64.4556 271.084 64.7485 270.63 64.9194C270.181 65.0903 269.698 65.1758 269.18 65.1758C268.326 65.1758 267.669 64.9683 267.21 64.5532C266.751 64.1333 266.521 63.5986 266.521 62.9492C266.521 62.5684 266.607 62.2217 266.778 61.9092C266.954 61.5918 267.181 61.3379 267.459 61.1475C267.742 60.957 268.06 60.813 268.411 60.7153C268.67 60.647 269.061 60.5811 269.583 60.5176C270.647 60.3906 271.431 60.2393 271.934 60.0635C271.939 59.8828 271.941 59.7681 271.941 59.7192C271.941 59.1821 271.817 58.8037 271.568 58.584C271.231 58.2861 270.73 58.1372 270.066 58.1372C269.446 58.1372 268.987 58.2471 268.689 58.4668C268.396 58.6816 268.179 59.0649 268.038 59.6167L266.749 59.4409C266.866 58.8892 267.059 58.4448 267.327 58.1079C267.596 57.7661 267.984 57.5049 268.492 57.3242C269 57.1387 269.588 57.0459 270.257 57.0459C270.921 57.0459 271.46 57.124 271.875 57.2803C272.291 57.4365 272.596 57.6343 272.791 57.8735C272.986 58.1079 273.123 58.4058 273.201 58.7671C273.245 58.9917 273.267 59.397 273.267 59.9829V61.7407C273.267 62.9663 273.294 63.7427 273.348 64.0698C273.406 64.3921 273.519 64.7021 273.685 65H272.308C272.171 64.7266 272.083 64.4067 272.044 64.0405ZM271.934 61.0962C271.456 61.2915 270.738 61.4575 269.781 61.5942C269.239 61.6724 268.855 61.7603 268.631 61.8579C268.406 61.9556 268.233 62.0996 268.111 62.29C267.989 62.4756 267.928 62.6831 267.928 62.9126C267.928 63.2642 268.06 63.5571 268.323 63.7915C268.592 64.0259 268.982 64.1431 269.495 64.1431C270.003 64.1431 270.455 64.0332 270.85 63.8135C271.246 63.5889 271.536 63.2837 271.722 62.8979C271.863 62.6001 271.934 62.1606 271.934 61.5796V61.0962ZM280.364 65V64.0186C279.871 64.79 279.146 65.1758 278.189 65.1758C277.569 65.1758 276.998 65.0049 276.475 64.6631C275.958 64.3213 275.555 63.8452 275.267 63.2349C274.983 62.6196 274.842 61.9141 274.842 61.1182C274.842 60.3418 274.971 59.6387 275.23 59.0088C275.489 58.374 275.877 57.8882 276.395 57.5513C276.912 57.2144 277.491 57.0459 278.13 57.0459C278.599 57.0459 279.017 57.146 279.383 57.3462C279.749 57.5415 280.047 57.7979 280.276 58.1152V54.2627H281.587V65H280.364ZM276.197 61.1182C276.197 62.1143 276.407 62.8589 276.827 63.3521C277.247 63.8452 277.742 64.0918 278.313 64.0918C278.89 64.0918 279.378 63.8574 279.778 63.3887C280.184 62.915 280.386 62.1948 280.386 61.228C280.386 60.1636 280.181 59.3823 279.771 58.8843C279.361 58.3862 278.855 58.1372 278.255 58.1372C277.669 58.1372 277.178 58.3765 276.783 58.855C276.392 59.3335 276.197 60.0879 276.197 61.1182ZM292.918 64.0405C292.43 64.4556 291.958 64.7485 291.504 64.9194C291.055 65.0903 290.572 65.1758 290.054 65.1758C289.2 65.1758 288.543 64.9683 288.084 64.5532C287.625 64.1333 287.396 63.5986 287.396 62.9492C287.396 62.5684 287.481 62.2217 287.652 61.9092C287.828 61.5918 288.055 61.3379 288.333 61.1475C288.616 60.957 288.934 60.813 289.285 60.7153C289.544 60.647 289.935 60.5811 290.457 60.5176C291.521 60.3906 292.305 60.2393 292.808 60.0635C292.813 59.8828 292.815 59.7681 292.815 59.7192C292.815 59.1821 292.691 58.8037 292.442 58.584C292.105 58.2861 291.604 58.1372 290.94 58.1372C290.32 58.1372 289.861 58.2471 289.563 58.4668C289.271 58.6816 289.053 59.0649 288.912 59.6167L287.623 59.4409C287.74 58.8892 287.933 58.4448 288.201 58.1079C288.47 57.7661 288.858 57.5049 289.366 57.3242C289.874 57.1387 290.462 57.0459 291.131 57.0459C291.795 57.0459 292.334 57.124 292.75 57.2803C293.165 57.4365 293.47 57.6343 293.665 57.8735C293.86 58.1079 293.997 58.4058 294.075 58.7671C294.119 58.9917 294.141 59.397 294.141 59.9829V61.7407C294.141 62.9663 294.168 63.7427 294.222 64.0698C294.28 64.3921 294.393 64.7021 294.559 65H293.182C293.045 64.7266 292.957 64.4067 292.918 64.0405ZM292.808 61.0962C292.33 61.2915 291.612 61.4575 290.655 61.5942C290.113 61.6724 289.729 61.7603 289.505 61.8579C289.28 61.9556 289.107 62.0996 288.985 62.29C288.863 62.4756 288.802 62.6831 288.802 62.9126C288.802 63.2642 288.934 63.5571 289.197 63.7915C289.466 64.0259 289.856 64.1431 290.369 64.1431C290.877 64.1431 291.329 64.0332 291.724 63.8135C292.12 63.5889 292.41 63.2837 292.596 62.8979C292.737 62.6001 292.808 62.1606 292.808 61.5796V61.0962ZM296.192 65V57.2217H297.378V58.3276C297.95 57.4731 298.775 57.0459 299.854 57.0459C300.323 57.0459 300.752 57.1313 301.143 57.3022C301.539 57.4683 301.834 57.688 302.029 57.9614C302.225 58.2349 302.361 58.5596 302.439 58.9355C302.488 59.1797 302.513 59.6069 302.513 60.2173V65H301.194V60.2686C301.194 59.7314 301.143 59.3311 301.041 59.0674C300.938 58.7988 300.755 58.5864 300.491 58.4302C300.232 58.269 299.927 58.1885 299.576 58.1885C299.014 58.1885 298.528 58.3667 298.118 58.7231C297.713 59.0796 297.51 59.7559 297.51 60.752V65H296.192ZM304.483 67.9956L304.336 66.7578C304.625 66.8359 304.876 66.875 305.091 66.875C305.384 66.875 305.618 66.8262 305.794 66.7285C305.97 66.6309 306.114 66.4941 306.226 66.3184C306.309 66.1865 306.443 65.8594 306.629 65.3369C306.653 65.2637 306.692 65.1562 306.746 65.0146L303.794 57.2217H305.215L306.834 61.7261C307.044 62.2974 307.232 62.8979 307.398 63.5278C307.549 62.9224 307.73 62.3315 307.94 61.7554L309.603 57.2217H310.921L307.962 65.1318C307.645 65.9863 307.398 66.5747 307.222 66.897C306.988 67.3315 306.719 67.6489 306.417 67.8491C306.114 68.0542 305.752 68.1567 305.333 68.1567C305.079 68.1567 304.795 68.103 304.483 67.9956ZM316.531 65V58.2471H315.367V57.2217H316.531V56.394C316.531 55.8716 316.578 55.4834 316.67 55.2295C316.797 54.8877 317.02 54.6118 317.337 54.4019C317.659 54.187 318.108 54.0796 318.685 54.0796C319.056 54.0796 319.466 54.1235 319.915 54.2114L319.717 55.3613C319.444 55.3125 319.185 55.2881 318.941 55.2881C318.541 55.2881 318.257 55.3735 318.091 55.5444C317.925 55.7153 317.842 56.0352 317.842 56.5039V57.2217H319.358V58.2471H317.842V65H316.531ZM320.398 55.7788V54.2627H321.717V55.7788H320.398ZM320.398 65V57.2217H321.717V65H320.398ZM323.702 65V54.2627H325.02V65H323.702ZM332.396 62.4951L333.758 62.6636C333.543 63.4595 333.145 64.0771 332.564 64.5166C331.983 64.9561 331.241 65.1758 330.337 65.1758C329.2 65.1758 328.296 64.8267 327.627 64.1284C326.963 63.4253 326.631 62.4414 326.631 61.1768C326.631 59.8682 326.968 58.8525 327.642 58.1299C328.316 57.4072 329.19 57.0459 330.264 57.0459C331.304 57.0459 332.154 57.3999 332.813 58.1079C333.472 58.8159 333.802 59.812 333.802 61.0962C333.802 61.1743 333.799 61.2915 333.794 61.4478H327.994C328.042 62.3022 328.284 62.9565 328.719 63.4106C329.153 63.8647 329.695 64.0918 330.345 64.0918C330.828 64.0918 331.241 63.9648 331.583 63.7109C331.924 63.457 332.195 63.0518 332.396 62.4951ZM328.067 60.3638H332.41C332.352 59.7095 332.186 59.2188 331.912 58.8916C331.492 58.3838 330.948 58.1299 330.279 58.1299C329.673 58.1299 329.163 58.3325 328.748 58.7378C328.338 59.1431 328.111 59.6851 328.067 60.3638ZM334.893 62.6782L336.197 62.4731C336.27 62.9956 336.473 63.396 336.805 63.6743C337.142 63.9526 337.61 64.0918 338.211 64.0918C338.816 64.0918 339.266 63.9697 339.559 63.7256C339.852 63.4766 339.998 63.186 339.998 62.854C339.998 62.5562 339.869 62.3218 339.61 62.1509C339.429 62.0337 338.98 61.8848 338.262 61.7041C337.295 61.46 336.624 61.25 336.248 61.0742C335.877 60.8936 335.594 60.647 335.398 60.3345C335.208 60.0171 335.113 59.668 335.113 59.2871C335.113 58.9404 335.191 58.6206 335.347 58.3276C335.508 58.0298 335.726 57.7832 335.999 57.5879C336.204 57.4365 336.482 57.3096 336.834 57.207C337.19 57.0996 337.571 57.0459 337.977 57.0459C338.587 57.0459 339.122 57.1338 339.581 57.3096C340.044 57.4854 340.386 57.7246 340.606 58.0273C340.826 58.3252 340.977 58.7256 341.06 59.2285L339.771 59.4043C339.712 59.0039 339.542 58.6914 339.258 58.4668C338.98 58.2422 338.584 58.1299 338.072 58.1299C337.466 58.1299 337.034 58.23 336.775 58.4302C336.517 58.6304 336.387 58.8647 336.387 59.1333C336.387 59.3042 336.441 59.458 336.548 59.5947C336.656 59.7363 336.824 59.8535 337.054 59.9463C337.186 59.9951 337.574 60.1074 338.218 60.2832C339.151 60.5322 339.8 60.7373 340.167 60.8984C340.538 61.0547 340.828 61.2842 341.038 61.5869C341.248 61.8896 341.353 62.2656 341.353 62.7148C341.353 63.1543 341.224 63.5693 340.965 63.96C340.711 64.3457 340.342 64.646 339.859 64.8608C339.375 65.0708 338.829 65.1758 338.218 65.1758C337.208 65.1758 336.436 64.9658 335.904 64.5459C335.376 64.126 335.04 63.5034 334.893 62.6782ZM200.611 83L198.23 75.2217H199.593L200.831 79.7114L201.292 81.3813C201.312 81.2983 201.446 80.7637 201.695 79.7773L202.933 75.2217H204.288L205.452 79.7334L205.84 81.2202L206.287 79.7188L207.62 75.2217H208.902L206.47 83H205.101L203.863 78.3418L203.562 77.0161L201.988 83H200.611ZM210.022 73.7788V72.2627H211.341V73.7788H210.022ZM210.022 83V75.2217H211.341V83H210.022ZM216.233 81.8208L216.424 82.9854C216.053 83.0635 215.721 83.1025 215.428 83.1025C214.949 83.1025 214.578 83.0269 214.314 82.8755C214.051 82.7241 213.865 82.5264 213.758 82.2822C213.65 82.0332 213.597 81.5132 213.597 80.7222V76.2471H212.63V75.2217H213.597V73.2954L214.908 72.5044V75.2217H216.233V76.2471H214.908V80.7954C214.908 81.1714 214.93 81.4131 214.974 81.5205C215.022 81.6279 215.098 81.7134 215.201 81.7769C215.308 81.8403 215.459 81.8721 215.655 81.8721C215.801 81.8721 215.994 81.855 216.233 81.8208ZM217.53 83V72.2627H218.848V76.1152C219.463 75.4023 220.24 75.0459 221.177 75.0459C221.753 75.0459 222.254 75.1606 222.679 75.3901C223.104 75.6147 223.406 75.9272 223.587 76.3276C223.772 76.728 223.865 77.3091 223.865 78.0708V83H222.547V78.0708C222.547 77.4116 222.403 76.9331 222.115 76.6353C221.832 76.3325 221.429 76.1812 220.906 76.1812C220.516 76.1812 220.147 76.2837 219.8 76.4888C219.458 76.689 219.214 76.9624 219.068 77.3091C218.921 77.6558 218.848 78.1343 218.848 78.7446V83H217.53ZM225.887 73.7788V72.2627H227.205V73.7788H225.887ZM225.887 83V75.2217H227.205V83H225.887ZM229.219 83V75.2217H230.406V76.3276C230.977 75.4731 231.802 75.0459 232.881 75.0459C233.35 75.0459 233.78 75.1313 234.17 75.3022C234.566 75.4683 234.861 75.688 235.057 75.9614C235.252 76.2349 235.389 76.5596 235.467 76.9355C235.516 77.1797 235.54 77.6069 235.54 78.2173V83H234.222V78.2686C234.222 77.7314 234.17 77.3311 234.068 77.0674C233.965 76.7988 233.782 76.5864 233.519 76.4302C233.26 76.269 232.955 76.1885 232.603 76.1885C232.042 76.1885 231.556 76.3667 231.146 76.7231C230.74 77.0796 230.538 77.7559 230.538 78.752V83H229.219ZM246.819 82.0405C246.331 82.4556 245.86 82.7485 245.406 82.9194C244.957 83.0903 244.473 83.1758 243.956 83.1758C243.101 83.1758 242.444 82.9683 241.985 82.5532C241.526 82.1333 241.297 81.5986 241.297 80.9492C241.297 80.5684 241.382 80.2217 241.553 79.9092C241.729 79.5918 241.956 79.3379 242.234 79.1475C242.518 78.957 242.835 78.813 243.187 78.7153C243.445 78.647 243.836 78.5811 244.358 78.5176C245.423 78.3906 246.207 78.2393 246.709 78.0635C246.714 77.8828 246.717 77.7681 246.717 77.7192C246.717 77.1821 246.592 76.8037 246.343 76.584C246.006 76.2861 245.506 76.1372 244.842 76.1372C244.222 76.1372 243.763 76.2471 243.465 76.4668C243.172 76.6816 242.955 77.0649 242.813 77.6167L241.524 77.4409C241.641 76.8892 241.834 76.4448 242.103 76.1079C242.371 75.7661 242.759 75.5049 243.267 75.3242C243.775 75.1387 244.363 75.0459 245.032 75.0459C245.696 75.0459 246.236 75.124 246.651 75.2803C247.066 75.4365 247.371 75.6343 247.566 75.8735C247.762 76.1079 247.898 76.4058 247.977 76.7671C248.021 76.9917 248.042 77.397 248.042 77.9829V79.7407C248.042 80.9663 248.069 81.7427 248.123 82.0698C248.182 82.3921 248.294 82.7021 248.46 83H247.083C246.946 82.7266 246.858 82.4067 246.819 82.0405ZM246.709 79.0962C246.231 79.2915 245.513 79.4575 244.556 79.5942C244.014 79.6724 243.631 79.7603 243.406 79.8579C243.182 79.9556 243.008 80.0996 242.886 80.29C242.764 80.4756 242.703 80.6831 242.703 80.9126C242.703 81.2642 242.835 81.5571 243.099 81.7915C243.367 82.0259 243.758 82.1431 244.271 82.1431C244.778 82.1431 245.23 82.0332 245.625 81.8135C246.021 81.5889 246.312 81.2837 246.497 80.8979C246.639 80.6001 246.709 80.1606 246.709 79.5796V79.0962ZM254.209 85.9956L254.063 84.7578C254.351 84.8359 254.603 84.875 254.817 84.875C255.11 84.875 255.345 84.8262 255.521 84.7285C255.696 84.6309 255.84 84.4941 255.953 84.3184C256.036 84.1865 256.17 83.8594 256.355 83.3369C256.38 83.2637 256.419 83.1562 256.473 83.0146L253.521 75.2217H254.942L256.561 79.7261C256.771 80.2974 256.958 80.8979 257.125 81.5278C257.276 80.9224 257.457 80.3315 257.667 79.7554L259.329 75.2217H260.647L257.688 83.1318C257.371 83.9863 257.125 84.5747 256.949 84.897C256.714 85.3315 256.446 85.6489 256.143 85.8491C255.84 86.0542 255.479 86.1567 255.059 86.1567C254.805 86.1567 254.522 86.103 254.209 85.9956ZM267.093 80.4951L268.455 80.6636C268.24 81.4595 267.842 82.0771 267.261 82.5166C266.68 82.9561 265.938 83.1758 265.035 83.1758C263.897 83.1758 262.994 82.8267 262.325 82.1284C261.661 81.4253 261.329 80.4414 261.329 79.1768C261.329 77.8682 261.666 76.8525 262.339 76.1299C263.013 75.4072 263.887 75.0459 264.961 75.0459C266.001 75.0459 266.851 75.3999 267.51 76.1079C268.169 76.8159 268.499 77.812 268.499 79.0962C268.499 79.1743 268.497 79.2915 268.492 79.4478H262.691C262.74 80.3022 262.981 80.9565 263.416 81.4106C263.851 81.8647 264.393 82.0918 265.042 82.0918C265.525 82.0918 265.938 81.9648 266.28 81.7109C266.622 81.457 266.893 81.0518 267.093 80.4951ZM262.764 78.3638H267.107C267.049 77.7095 266.883 77.2188 266.609 76.8916C266.189 76.3838 265.645 76.1299 264.976 76.1299C264.371 76.1299 263.86 76.3325 263.445 76.7378C263.035 77.1431 262.808 77.6851 262.764 78.3638ZM275.193 82.0405C274.705 82.4556 274.234 82.7485 273.78 82.9194C273.331 83.0903 272.847 83.1758 272.33 83.1758C271.475 83.1758 270.818 82.9683 270.359 82.5532C269.9 82.1333 269.671 81.5986 269.671 80.9492C269.671 80.5684 269.756 80.2217 269.927 79.9092C270.103 79.5918 270.33 79.3379 270.608 79.1475C270.892 78.957 271.209 78.813 271.561 78.7153C271.819 78.647 272.21 78.5811 272.732 78.5176C273.797 78.3906 274.581 78.2393 275.083 78.0635C275.088 77.8828 275.091 77.7681 275.091 77.7192C275.091 77.1821 274.966 76.8037 274.717 76.584C274.38 76.2861 273.88 76.1372 273.216 76.1372C272.596 76.1372 272.137 76.2471 271.839 76.4668C271.546 76.6816 271.329 77.0649 271.187 77.6167L269.898 77.4409C270.015 76.8892 270.208 76.4448 270.477 76.1079C270.745 75.7661 271.133 75.5049 271.641 75.3242C272.149 75.1387 272.737 75.0459 273.406 75.0459C274.07 75.0459 274.61 75.124 275.025 75.2803C275.44 75.4365 275.745 75.6343 275.94 75.8735C276.136 76.1079 276.272 76.4058 276.351 76.7671C276.395 76.9917 276.417 77.397 276.417 77.9829V79.7407C276.417 80.9663 276.443 81.7427 276.497 82.0698C276.556 82.3921 276.668 82.7021 276.834 83H275.457C275.32 82.7266 275.232 82.4067 275.193 82.0405ZM275.083 79.0962C274.605 79.2915 273.887 79.4575 272.93 79.5942C272.388 79.6724 272.005 79.7603 271.78 79.8579C271.556 79.9556 271.382 80.0996 271.26 80.29C271.138 80.4756 271.077 80.6831 271.077 80.9126C271.077 81.2642 271.209 81.5571 271.473 81.7915C271.741 82.0259 272.132 82.1431 272.645 82.1431C273.152 82.1431 273.604 82.0332 274 81.8135C274.395 81.5889 274.686 81.2837 274.871 80.8979C275.013 80.6001 275.083 80.1606 275.083 79.5796V79.0962ZM278.453 83V75.2217H279.639V76.4009C279.942 75.8491 280.22 75.4854 280.474 75.3096C280.733 75.1338 281.016 75.0459 281.324 75.0459C281.768 75.0459 282.22 75.1875 282.679 75.4707L282.225 76.6938C281.902 76.5034 281.58 76.4082 281.258 76.4082C280.97 76.4082 280.711 76.4961 280.481 76.6719C280.252 76.8428 280.088 77.082 279.991 77.3896C279.844 77.8584 279.771 78.3711 279.771 78.9277V83H278.453ZM283.001 83V81.4985H284.502V83H283.001Z" fill="#191919"/>
    <rect x="34.0518" y="34" width="42" height="42" rx="21" fill="#00B67A"/>
    <g clip-path="url(#clip0)">
        <path d="M55.0518 67C54.9032 67 54.7546 66.962 54.6237 66.886L49.202 63.7395C47.7826 62.9158 46.6035 61.7618 45.7921 60.4023C44.9806 59.0429 44.5518 57.5028 44.5518 55.9485V45.625C44.5518 45.2697 44.8202 44.9632 45.1947 44.8907L54.887 43.0157C54.9957 42.9948 55.1078 42.9948 55.2165 43.0157L64.9088 44.8907C65.2833 44.9632 65.5518 45.2697 65.5518 45.625V55.9485C65.5518 57.5028 65.1229 59.0429 64.3114 60.4023C63.5 61.7618 62.3209 62.9158 60.9015 63.7395L55.4798 66.886C55.3489 66.962 55.2003 67 55.0518 67ZM46.1671 46.2348V55.9485C46.1671 58.6165 47.6217 61.0535 50.0582 62.4675L55.0518 65.3656L60.0453 62.4675C62.4818 61.0535 63.9364 58.6165 63.9364 55.9485V46.2348L55.0518 44.5161L46.1671 46.2348Z" fill="white"/>
        <path d="M46.1671 46.2348V55.9485C46.1671 58.6165 47.6217 61.0535 50.0582 62.4675L55.0518 65.3656L60.0453 62.4675C62.4818 61.0535 63.9364 58.6165 63.9364 55.9485V46.2348L55.0518 44.5161L46.1671 46.2348Z" fill="white"/>
        <path d="M58.8018 56.6324C58.8018 54.8808 57.2878 53.4559 55.4268 53.4559C54.4963 53.4559 53.7393 52.7434 53.7393 51.8676C53.7393 50.9919 54.4963 50.2794 55.4268 50.2794C56.2545 50.2794 56.9542 50.8355 57.0905 51.6017C57.1675 52.0343 57.6022 52.3264 58.062 52.2538C58.5216 52.1814 58.8318 51.7721 58.7548 51.3395C58.5298 50.0745 57.5389 49.0962 56.2705 48.7912V48.2941C56.2705 47.8556 55.8927 47.5 55.4268 47.5C54.9608 47.5 54.583 47.8556 54.583 48.2941V48.7917C53.129 49.1452 52.0518 50.3902 52.0518 51.8676C52.0518 53.6192 53.5658 55.0441 55.4268 55.0441C56.3573 55.0441 57.1143 55.7566 57.1143 56.6324C57.1143 57.5081 56.3573 58.2206 55.4268 58.2206C54.599 58.2206 53.8993 57.6645 53.763 56.8983C53.6861 56.4657 53.2514 56.1737 52.7915 56.2462C52.3319 56.3186 52.0218 56.7279 52.0987 57.1605C52.3237 58.4255 53.3146 59.4038 54.583 59.7088V60.2059C54.583 60.6444 54.9608 61 55.4268 61C55.8927 61 56.2705 60.6444 56.2705 60.2059V59.7083C57.7245 59.3548 58.8018 58.1097 58.8018 56.6324Z" fill="#00B67A"/>
    </g>
    <circle cx="55" cy="55" r="26.5" stroke="#00B67A" stroke-dasharray="5 5"/>
    <rect x="0.75" y="0.75" width="398.5" height="108.5" rx="4.25" stroke="#F4F6F9" stroke-width="1.5"/>
    <defs>
        <clipPath id="clip0">
            <rect width="24" height="24" fill="white" transform="translate(43.0518 43)"/>
        </clipPath>
    </defs>
</svg>
