<svg width="18" height="12" viewBox="0 0 18 12" fill="none" xmlns="http://www.w3.org/2000/svg">
    <mask id="mask0" mask-type="alpha" maskUnits="userSpaceOnUse" x="0" y="0" width="18" height="12">
        <path d="M16.2857 0H1.71429C1.04365 0 0.5 0.537258 0.5 1.2V10.8C0.5 11.4627 1.04365 12 1.71429 12H16.2857C16.9563 12 17.5 11.4627 17.5 10.8V1.2C17.5 0.537258 16.9563 0 16.2857 0Z" fill="white"/>
    </mask>
    <g mask="url(#mask0)">
        <path d="M16.2857 0H1.71429C1.04365 0 0.5 0.537258 0.5 1.2V10.8C0.5 11.4627 1.04365 12 1.71429 12H16.2857C16.9563 12 17.5 11.4627 17.5 10.8V1.2C17.5 0.537258 16.9563 0 16.2857 0Z" fill="white"/>
        <path fill-rule="evenodd" clip-rule="evenodd" d="M17.5 11.2V12H0.5V11.2H17.5ZM17.5 9.6V10.4H0.5V9.6H17.5ZM17.5 8V8.8H0.5V8H17.5ZM17.5 6.4V7.2H0.5V6.4H17.5ZM17.5 4.8V5.6H0.5V4.8H17.5ZM17.5 3.2V4H0.5V3.2H17.5ZM17.5 1.6V2.4H0.5V1.6H17.5ZM17.5 0V0.8H0.5V0H17.5Z" fill="#D02F44"/>
        <path d="M7.78571 0H0.5V5.6H7.78571V0Z" fill="#46467F"/>
        <g filter="url(#filter0_d)">
            <path d="M6.57148 3.99993C6.79502 3.99993 6.97624 4.17901 6.97624 4.39993C6.97624 4.62084 6.79502 4.79993 6.57148 4.79993C6.34793 4.79993 6.16671 4.62084 6.16671 4.39993C6.16671 4.17901 6.34793 3.99993 6.57148 3.99993ZM4.95243 3.99993C5.17597 3.99993 5.35719 4.17901 5.35719 4.39993C5.35719 4.62084 5.17597 4.79993 4.95243 4.79993C4.72888 4.79993 4.54767 4.62084 4.54767 4.39993C4.54767 4.17901 4.72888 3.99993 4.95243 3.99993ZM3.33338 3.99993C3.55692 3.99993 3.73814 4.17901 3.73814 4.39993C3.73814 4.62084 3.55692 4.79993 3.33338 4.79993C3.10984 4.79993 2.92862 4.62084 2.92862 4.39993C2.92862 4.17901 3.10984 3.99993 3.33338 3.99993ZM1.71433 3.99993C1.93788 3.99993 2.11909 4.17901 2.11909 4.39993C2.11909 4.62084 1.93788 4.79993 1.71433 4.79993C1.49079 4.79993 1.30957 4.62084 1.30957 4.39993C1.30957 4.17901 1.49079 3.99993 1.71433 3.99993ZM2.52386 3.19993C2.7474 3.19993 2.92862 3.37901 2.92862 3.59993C2.92862 3.82084 2.7474 3.99993 2.52386 3.99993C2.30031 3.99993 2.11909 3.82084 2.11909 3.59993C2.11909 3.37901 2.30031 3.19993 2.52386 3.19993ZM4.1429 3.19993C4.36645 3.19993 4.54767 3.37901 4.54767 3.59993C4.54767 3.82084 4.36645 3.99993 4.1429 3.99993C3.91936 3.99993 3.73814 3.82084 3.73814 3.59993C3.73814 3.37901 3.91936 3.19993 4.1429 3.19993ZM5.76195 3.19993C5.9855 3.19993 6.16671 3.37901 6.16671 3.59993C6.16671 3.82084 5.9855 3.99993 5.76195 3.99993C5.53841 3.99993 5.35719 3.82084 5.35719 3.59993C5.35719 3.37901 5.53841 3.19993 5.76195 3.19993ZM6.57148 2.39993C6.79502 2.39993 6.97624 2.57901 6.97624 2.79993C6.97624 3.02084 6.79502 3.19993 6.57148 3.19993C6.34793 3.19993 6.16671 3.02084 6.16671 2.79993C6.16671 2.57901 6.34793 2.39993 6.57148 2.39993ZM4.95243 2.39993C5.17597 2.39993 5.35719 2.57901 5.35719 2.79993C5.35719 3.02084 5.17597 3.19993 4.95243 3.19993C4.72888 3.19993 4.54767 3.02084 4.54767 2.79993C4.54767 2.57901 4.72888 2.39993 4.95243 2.39993ZM3.33338 2.39993C3.55692 2.39993 3.73814 2.57901 3.73814 2.79993C3.73814 3.02084 3.55692 3.19993 3.33338 3.19993C3.10984 3.19993 2.92862 3.02084 2.92862 2.79993C2.92862 2.57901 3.10984 2.39993 3.33338 2.39993ZM1.71433 2.39993C1.93788 2.39993 2.11909 2.57901 2.11909 2.79993C2.11909 3.02084 1.93788 3.19993 1.71433 3.19993C1.49079 3.19993 1.30957 3.02084 1.30957 2.79993C1.30957 2.57901 1.49079 2.39993 1.71433 2.39993ZM2.52386 1.59993C2.7474 1.59993 2.92862 1.77901 2.92862 1.99993C2.92862 2.22084 2.7474 2.39993 2.52386 2.39993C2.30031 2.39993 2.11909 2.22084 2.11909 1.99993C2.11909 1.77901 2.30031 1.59993 2.52386 1.59993ZM4.1429 1.59993C4.36645 1.59993 4.54767 1.77901 4.54767 1.99993C4.54767 2.22084 4.36645 2.39993 4.1429 2.39993C3.91936 2.39993 3.73814 2.22084 3.73814 1.99993C3.73814 1.77901 3.91936 1.59993 4.1429 1.59993ZM5.76195 1.59993C5.9855 1.59993 6.16671 1.77901 6.16671 1.99993C6.16671 2.22084 5.9855 2.39993 5.76195 2.39993C5.53841 2.39993 5.35719 2.22084 5.35719 1.99993C5.35719 1.77901 5.53841 1.59993 5.76195 1.59993ZM1.71433 0.799927C1.93788 0.799927 2.11909 0.979013 2.11909 1.19993C2.11909 1.42084 1.93788 1.59993 1.71433 1.59993C1.49079 1.59993 1.30957 1.42084 1.30957 1.19993C1.30957 0.979013 1.49079 0.799927 1.71433 0.799927ZM3.33338 0.799927C3.55692 0.799927 3.73814 0.979013 3.73814 1.19993C3.73814 1.42084 3.55692 1.59993 3.33338 1.59993C3.10984 1.59993 2.92862 1.42084 2.92862 1.19993C2.92862 0.979013 3.10984 0.799927 3.33338 0.799927ZM4.95243 0.799927C5.17597 0.799927 5.35719 0.979013 5.35719 1.19993C5.35719 1.42084 5.17597 1.59993 4.95243 1.59993C4.72888 1.59993 4.54767 1.42084 4.54767 1.19993C4.54767 0.979013 4.72888 0.799927 4.95243 0.799927ZM6.57148 0.799927C6.79502 0.799927 6.97624 0.979013 6.97624 1.19993C6.97624 1.42084 6.79502 1.59993 6.57148 1.59993C6.34793 1.59993 6.16671 1.42084 6.16671 1.19993C6.16671 0.979013 6.34793 0.799927 6.57148 0.799927Z" fill="black"/>
        </g>
        <path d="M6.57148 3.99993C6.79502 3.99993 6.97624 4.17901 6.97624 4.39993C6.97624 4.62084 6.79502 4.79993 6.57148 4.79993C6.34793 4.79993 6.16671 4.62084 6.16671 4.39993C6.16671 4.17901 6.34793 3.99993 6.57148 3.99993ZM4.95243 3.99993C5.17597 3.99993 5.35719 4.17901 5.35719 4.39993C5.35719 4.62084 5.17597 4.79993 4.95243 4.79993C4.72888 4.79993 4.54767 4.62084 4.54767 4.39993C4.54767 4.17901 4.72888 3.99993 4.95243 3.99993ZM3.33338 3.99993C3.55692 3.99993 3.73814 4.17901 3.73814 4.39993C3.73814 4.62084 3.55692 4.79993 3.33338 4.79993C3.10984 4.79993 2.92862 4.62084 2.92862 4.39993C2.92862 4.17901 3.10984 3.99993 3.33338 3.99993ZM1.71433 3.99993C1.93788 3.99993 2.11909 4.17901 2.11909 4.39993C2.11909 4.62084 1.93788 4.79993 1.71433 4.79993C1.49079 4.79993 1.30957 4.62084 1.30957 4.39993C1.30957 4.17901 1.49079 3.99993 1.71433 3.99993ZM2.52386 3.19993C2.7474 3.19993 2.92862 3.37901 2.92862 3.59993C2.92862 3.82084 2.7474 3.99993 2.52386 3.99993C2.30031 3.99993 2.11909 3.82084 2.11909 3.59993C2.11909 3.37901 2.30031 3.19993 2.52386 3.19993ZM4.1429 3.19993C4.36645 3.19993 4.54767 3.37901 4.54767 3.59993C4.54767 3.82084 4.36645 3.99993 4.1429 3.99993C3.91936 3.99993 3.73814 3.82084 3.73814 3.59993C3.73814 3.37901 3.91936 3.19993 4.1429 3.19993ZM5.76195 3.19993C5.9855 3.19993 6.16671 3.37901 6.16671 3.59993C6.16671 3.82084 5.9855 3.99993 5.76195 3.99993C5.53841 3.99993 5.35719 3.82084 5.35719 3.59993C5.35719 3.37901 5.53841 3.19993 5.76195 3.19993ZM6.57148 2.39993C6.79502 2.39993 6.97624 2.57901 6.97624 2.79993C6.97624 3.02084 6.79502 3.19993 6.57148 3.19993C6.34793 3.19993 6.16671 3.02084 6.16671 2.79993C6.16671 2.57901 6.34793 2.39993 6.57148 2.39993ZM4.95243 2.39993C5.17597 2.39993 5.35719 2.57901 5.35719 2.79993C5.35719 3.02084 5.17597 3.19993 4.95243 3.19993C4.72888 3.19993 4.54767 3.02084 4.54767 2.79993C4.54767 2.57901 4.72888 2.39993 4.95243 2.39993ZM3.33338 2.39993C3.55692 2.39993 3.73814 2.57901 3.73814 2.79993C3.73814 3.02084 3.55692 3.19993 3.33338 3.19993C3.10984 3.19993 2.92862 3.02084 2.92862 2.79993C2.92862 2.57901 3.10984 2.39993 3.33338 2.39993ZM1.71433 2.39993C1.93788 2.39993 2.11909 2.57901 2.11909 2.79993C2.11909 3.02084 1.93788 3.19993 1.71433 3.19993C1.49079 3.19993 1.30957 3.02084 1.30957 2.79993C1.30957 2.57901 1.49079 2.39993 1.71433 2.39993ZM2.52386 1.59993C2.7474 1.59993 2.92862 1.77901 2.92862 1.99993C2.92862 2.22084 2.7474 2.39993 2.52386 2.39993C2.30031 2.39993 2.11909 2.22084 2.11909 1.99993C2.11909 1.77901 2.30031 1.59993 2.52386 1.59993ZM4.1429 1.59993C4.36645 1.59993 4.54767 1.77901 4.54767 1.99993C4.54767 2.22084 4.36645 2.39993 4.1429 2.39993C3.91936 2.39993 3.73814 2.22084 3.73814 1.99993C3.73814 1.77901 3.91936 1.59993 4.1429 1.59993ZM5.76195 1.59993C5.9855 1.59993 6.16671 1.77901 6.16671 1.99993C6.16671 2.22084 5.9855 2.39993 5.76195 2.39993C5.53841 2.39993 5.35719 2.22084 5.35719 1.99993C5.35719 1.77901 5.53841 1.59993 5.76195 1.59993ZM1.71433 0.799927C1.93788 0.799927 2.11909 0.979013 2.11909 1.19993C2.11909 1.42084 1.93788 1.59993 1.71433 1.59993C1.49079 1.59993 1.30957 1.42084 1.30957 1.19993C1.30957 0.979013 1.49079 0.799927 1.71433 0.799927ZM3.33338 0.799927C3.55692 0.799927 3.73814 0.979013 3.73814 1.19993C3.73814 1.42084 3.55692 1.59993 3.33338 1.59993C3.10984 1.59993 2.92862 1.42084 2.92862 1.19993C2.92862 0.979013 3.10984 0.799927 3.33338 0.799927ZM4.95243 0.799927C5.17597 0.799927 5.35719 0.979013 5.35719 1.19993C5.35719 1.42084 5.17597 1.59993 4.95243 1.59993C4.72888 1.59993 4.54767 1.42084 4.54767 1.19993C4.54767 0.979013 4.72888 0.799927 4.95243 0.799927ZM6.57148 0.799927C6.79502 0.799927 6.97624 0.979013 6.97624 1.19993C6.97624 1.42084 6.79502 1.59993 6.57148 1.59993C6.34793 1.59993 6.16671 1.42084 6.16671 1.19993C6.16671 0.979013 6.34793 0.799927 6.57148 0.799927Z" fill="url(#paint0_linear)"/>
    </g>
    <defs>
        <filter id="filter0_d" x="-2.69043" y="-2.20007" width="13.6667" height="12" filterUnits="userSpaceOnUse" color-interpolation-filters="sRGB">
            <feFlood flood-opacity="0" result="BackgroundImageFix"/>
            <feColorMatrix in="SourceAlpha" type="matrix" values="0 0 0 0 0 0 0 0 0 0 0 0 0 0 0 0 0 0 127 0"/>
            <feOffset dy="1"/>
            <feGaussianBlur stdDeviation="2"/>
            <feColorMatrix type="matrix" values="0 0 0 0 0 0 0 0 0 0 0 0 0 0 0 0 0 0 0.06 0"/>
            <feBlend mode="normal" in2="BackgroundImageFix" result="effect1_dropShadow"/>
            <feBlend mode="normal" in="SourceGraphic" in2="effect1_dropShadow" result="shape"/>
        </filter>
        <linearGradient id="paint0_linear" x1="4.1429" y1="0.799927" x2="4.1429" y2="4.79993" gradientUnits="userSpaceOnUse">
            <stop stop-color="white"/>
            <stop offset="1" stop-color="#F0F0F0"/>
        </linearGradient>
    </defs>
</svg>